<?xml version="1.0" standalone="no"?>
<!DOCTYPE svg PUBLIC "-//W3C//DTD SVG 1.1//EN" "http://www.w3.org/Graphics/SVG/1.1/DTD/svg11.dtd" >
<svg xmlns="http://www.w3.org/2000/svg">
<metadata>
Created by FontForge 20120731 at Wed Jun 28 16:34:02 2017
 By admin
</metadata>
<defs>
<font id="FT-page" horiz-adv-x="1024" >
  <font-face 
    font-family="FT-page"
    font-weight="500"
    font-stretch="normal"
    units-per-em="1024"
    panose-1="2 0 6 3 0 0 0 0 0 0"
    ascent="896"
    descent="-128"
    x-height="792"
    bbox="-1 -219 1036 896.633"
    underline-thickness="0"
    underline-position="0"
    unicode-range="U+0078-E9A8"
  />
<missing-glyph 
 />
    <glyph glyph-name=".notdef" 
 />
    <glyph glyph-name=".notdef" 
 />
    <glyph glyph-name=".null" horiz-adv-x="0" 
 />
    <glyph glyph-name="nonmarkingreturn" horiz-adv-x="341" 
 />
    <glyph glyph-name="x" unicode="x" horiz-adv-x="1001" 
d="M281 543q-27 -1 -53 -1h-83q-18 0 -36.5 -6t-32.5 -18.5t-23 -32t-9 -45.5v-76h912v41q0 16 -0.5 30t-0.5 18q0 13 -5 29t-17 29.5t-31.5 22.5t-49.5 9h-133v-97h-438v97zM955 310v-52q0 -23 0.5 -52t0.5 -58t-10.5 -47.5t-26 -30t-33 -16t-31.5 -4.5q-14 -1 -29.5 -0.5
t-29.5 0.5h-32l-45 128h-439l-44 -128h-29h-34q-20 0 -45 1q-25 0 -41 9.5t-25.5 23t-13.5 29.5t-4 30v167h911zM163 247q-12 0 -21 -8.5t-9 -21.5t9 -21.5t21 -8.5q13 0 22 8.5t9 21.5t-9 21.5t-22 8.5zM316 123q-8 -26 -14 -48q-5 -19 -10.5 -37t-7.5 -25t-3 -15t1 -14.5
t9.5 -10.5t21.5 -4h37h67h81h80h64h36q23 0 34 12t2 38q-5 13 -9.5 30.5t-9.5 34.5q-5 19 -11 39h-368zM336 498v228q0 11 2.5 23t10 21.5t20.5 15.5t34 6h188q31 0 51.5 -14.5t20.5 -52.5v-227h-327z" />
    <glyph glyph-name="shizhong" unicode="&#xe609;" 
d="M522 -150q-92 0 -175.5 35.5t-144 96t-96.5 144.5t-36 176t36 175.5t96.5 144t144 96.5t175.5 36t176 -36t144.5 -96.5t96 -144t35.5 -175.5t-35.5 -176t-96 -144.5t-144.5 -96t-176 -35.5v0zM522 718q-113 0 -208.5 -56t-151.5 -151.5t-56 -208.5t56 -209t151.5 -151.5
t208.5 -55.5t209 55.5t151.5 151.5t55.5 209t-55.5 208.5t-151.5 151.5t-209 56v0zM830 284v36h72v-36h-72v0zM502 344l261 214l-210 -265l-51 51v0zM504 681h36v-72h-36v72v0zM277 72l199 246l51 -51l-250 -195v0zM540 -78h-36v72h36v-72v0zM142 320h73v-36h-73v36v0z" />
    <glyph glyph-name="fanhui" unicode="&#xe604;" 
d="M629 652l-298 -308v0l-43 -44l43 -44v0l298 -308l43 44l-299 308l299 308z" />
    <glyph glyph-name="shafa" unicode="&#xe656;" 
d="M241 237q4 70 -23.5 106t-78.5 54q-6 60 14.5 109.5t61 81t96 52.5t116.5 28t124.5 4.5t118.5 -16t100 -36t69 -51.5q22 -28 35 -75t13 -97q-26 -9 -43.5 -19.5t-33.5 -28t-22 -45.5t-3 -67h-544zM214 197q22 93 -26 139q-35 33 -76 16q-43 -18 -48 -82q-7 -69 18.5 -147
t56.5 -131q14 -5 16 -5h19v-34q0 -11 11 -19t26.5 -8t26.5 8t11 19v34h527v-34q0 -11 11 -19t26.5 -8t26.5 8t11 19v34h17q4 1 10 5.5t9 5.5q1 3 11.5 25t13.5 29.5t12.5 29.5t13 34t10.5 33.5t9 37t4 35.5t1 38.5t-5 36.5q-6 27 -26.5 43.5t-44 18.5t-45 -14t-30.5 -48
q-5 -22 -1 -35.5t3 -33t-12 -37.5q-7 7 -62 28q-203 79 -411 22q-58 -17 -114 -44z" />
    <glyph glyph-name="iconfont01" unicode="&#xe600;" 
d="M790 150h-123q7 -19 7 -39h116q6 0 6 6v27q0 6 -6 6zM790 263h-174q-10 -27 -30 -39h204q6 0 6 6v27q0 6 -6 6zM790 376h-192q4 -14 6 -31q3 -3 6 -7h180q6 0 6 5v28q0 5 -6 5zM566 173h-19q-13 0 -21.5 8.5t-8.5 21.5q0 11 7 18q15 14 25 37l6 14l10 -8q4 3 7.5 12
t3.5 16q0 13 -1 17l-14 -4l-1 15q-1 46 -17 66.5t-51 20.5q-40 0 -53.5 -23t-14.5 -63v-15l-14 3q-1 -4 -1 -17q0 -8 4 -16.5t8 -11.5l9 6l5 -12q10 -23 25 -37q8 -7 8 -18q0 -13 -9 -21.5t-21 -8.5h-20q-26 0 -44.5 -18.5t-18.5 -43.5v-21q0 -5 3.5 -8.5t8.5 -3.5h250
q5 0 8.5 3.5t3.5 8.5v21q0 25 -18.5 43.5t-44.5 18.5zM158 637h580q41 0 60 -35h30q-10 27 -34.5 44t-55.5 17h-580q-39 0 -67 -27.5t-28 -66.5v-423q0 -34 20.5 -59.5t53.5 -32.5v27q-21 7 -34 24.5t-13 40.5v423q0 28 20 48t48 20zM933 521.5q-28 27.5 -67 27.5h-580
q-40 0 -68 -27.5t-28 -67.5v-423q0 -39 28 -66.5t68 -27.5h580q39 0 67 27.5t28 66.5v423q0 40 -28 67.5zM934 31q0 -28 -20 -48t-48 -20h-580q-29 0 -49 20t-20 48v423q0 29 20 49t49 20h580q28 0 48 -20t20 -49v-423z" />
    <glyph glyph-name="youjiantou" unicode="&#xe60d;" 
d="M49 299q0 95 36.5 180.5t98.5 147.5t148 99t180 37t180 -37t148 -99t98.5 -147.5t36.5 -180t-36.5 -180t-98.5 -147.5t-148 -99t-180 -37t-180 37t-148 99t-98.5 147.5t-36.5 179.5v0zM909 299q0 108 -53 199.5t-144.5 145t-199.5 53.5t-199.5 -53.5t-144.5 -145
t-53 -199t53 -199t144.5 -145t199.5 -53.5t199.5 53.5t144.5 145t53 198.5v0zM567 111l166 164q16 15 8 36q-1 0 -1.5 0.5t-0.5 1.5q-3 6 -6 8v1v0l-164 164q-10 10 -23.5 10t-23.5 -9.5t-10 -23.5t10 -23l107 -107h-316q-13 0 -23 -10t-10 -23.5t10 -23.5t23 -10h318
l-110 -108q-10 -10 -10 -24q0 -13 9.5 -23t23.5 -10t23 10v0zM567 111z" />
    <glyph glyph-name="zichanguanli" unicode="&#xe618;" 
d="M511 748q-90 0 -172.5 -35.5t-142 -95t-95 -142t-35.5 -173t35.5 -172.5t95 -141.5t142 -95t172.5 -35.5t172.5 35.5t142 95t95 141.5t35.5 172.5t-35.5 173t-95 142t-142 95t-172.5 35.5zM511 -86q-106 0 -195.5 52t-141.5 141.5t-52 195.5t52 195.5t141.5 141.5
t195.5 52t195.5 -52t141.5 -141.5t52 -195.5t-52 -195.5t-141.5 -141.5t-195.5 -52zM621 305q-24 19 -85 34v160q29 -6 45 -22q21 -19 27 -58l46 9q-6 27 -13.5 43t-21.5 31q-29 29 -83 37v31h-50v-31q-42 -6 -67 -24q-47 -32 -47 -94q0 -60 43 -88q25 -17 71 -28v-176
q-35 5 -55 26q-20 23 -24 69l-47 -8q9 -60 37 -89q29 -30 89 -38v-53h50v52q50 6 76 24q50 33 50 103q0 59 -41 90zM486 349q-18 5 -31 11q-40 20 -40 62q0 38 27 59q16 13 44 18v-150zM587 148q-18 -15 -51 -20v166q41 -11 54 -21q27 -20 27 -59q0 -44 -30 -66z" />
    <glyph glyph-name="shezhi" unicode="&#xe620;" horiz-adv-x="1026" 
d="M509 481q-74 0 -126 -52t-52 -126t52 -126t126 -52t126.5 52t52.5 126t-52.5 126t-126.5 52zM509 175q-53 0 -90.5 37.5t-37.5 90.5t37.5 91t90.5 38t91 -38t38 -91t-38 -90.5t-91 -37.5zM899 434h-22l-2 7v0q-1 1 -1 2v0q-5 12 -9 21l-3 6l15 16q35 35 35 84.5t-35 84.5
l-16 16q-35 35 -84.5 35t-84.5 -35l-15 -15l-7 3q-10 5 -23 9l-7 3v22q0 49 -35 84t-84 35h-24q-49 0 -84 -35t-35 -84v-22l-7 -3q-13 -4 -23 -9l-6 -3l-16 15q-35 35 -84.5 35t-84.5 -35l-16 -16q-35 -35 -35 -84.5t35 -84.5l15 -16l-3 -6q-4 -9 -9 -21v-2h-1l-2 -7h-22
q-49 0 -84 -35t-35 -84v-24q0 -49 35 -84t84 -35h22l2 -7h1v-2q5 -12 9 -21l3 -6l-15 -16q-35 -35 -35 -84t35 -84l16 -17q35 -35 84.5 -35t84.5 35l16 15l6 -3q10 -4 23 -9l7 -3v-21q0 -50 35 -85t84 -35h24q49 0 84 35t35 85v21l7 3q13 5 23 9l7 3l15 -15q35 -35 84.5 -35
t84.5 35l16 17q35 35 35 84t-35 84l-15 16l3 6q4 9 9 21q0 1 1 2v0l2 7h22q49 0 84 35t35 84v24q0 49 -35 84t-84 35zM968 291q0 -7 -1 -13q-1 -2 -1 -5q-1 0 -1 -1v-1q-1 -4 -2 -6l-3 -6l-1 -1v-1q-1 -2 -2 -3q-2 -4 -6 -8v0v0l-2 -2q-3 -4 -8 -7q0 -1 -1 -1
q-15 -12 -35 -14h-2h-4h-59q-12 -49 -40 -95l42 -42q16 -16 19 -39q0 -1 1 -1v-12v-2v0q-1 -6 -1 -10q-1 -1 -1 -3q-1 -1 -1 -2v-1q-1 -4 -2 -6l-3 -6l-1 -1v-1l-2 -4q-4 -5 -9 -10l-17 -17q-4 -5 -10 -8v-1q-2 0 -4 -2h-1l-1 -1l-6 -3t-6 -2h-1v0h-2q-2 -1 -3 -1
q-4 -1 -10 -2v0v0h-2h-3q-4 0 -8 1h-1v0q-24 3 -40 19l-42 42q-46 -28 -95 -40v-58v-5v-2q-2 -19 -14 -35v-1v0q-4 -5 -8 -8l-2 -2v0q-4 -4 -8 -6q-1 -1 -3 -2h-1l-1 -1l-6 -3v0q-2 -1 -6 -2h-1h-1q-3 -1 -5 -2q-6 -1 -13 -1h-24q-7 0 -13 1l-4 2h-2h-1q-4 1 -6 2v0l-6 3
l-1 1h-1q-2 1 -3 2q-3 2 -8 6v0l-2 2q-4 3 -7 8h-1v1q-12 16 -14 35v2v5v58q-49 12 -95 40l-42 -42q-16 -16 -39 -19h-1v0q-5 -1 -9 -1h-3h-2v0v0q-6 1 -10 2q-1 0 -3 1h-2v0h-1q-4 1 -6 2l-6 3l-1 1h-1q-2 2 -4 3q-5 3 -10 8l-17 17q-5 5 -9 10q0 2 -2 4v1l-1 1l-3 6t-2 6
v2l-1 1q0 2 -1 3q0 4 -1 10v0v2q0 5 1 11v2q3 23 19 39l42 42q-28 46 -40 95h-59h-4h-2q-20 2 -35 14q-1 0 -1 1q-5 3 -8 7l-2 2v0v0q-4 4 -6 8q-1 1 -2 3v1l-1 1l-3 6t-2 6v1v1q-1 3 -2 5q-1 6 -1 13v24q0 7 1 13q1 2 2 5v1v1q1 4 2 6l3 6l1 1v1q1 2 2 3q2 3 6 8v0v0l2 2
q3 4 8 8h1q15 12 35 14h2h4h59q12 49 40 95l-42 42q-16 16 -19 39v2q-1 6 -1 11v2v0q1 6 1 10q1 1 1 4q1 0 1 1v1q1 4 2 6l3 6l1 1v1q2 2 2 4q4 5 9 10l17 17q4 5 10 9v0q2 0 4 2h1l1 1l6 3t6 2h1v0q1 0 2 1q2 0 3 1q4 0 10 1v0h2h2h9q1 -1 2 -1q23 -3 39 -19l42 -42
q46 28 95 40v59v4v2q2 20 14 35v1h1q3 5 7 8l2 2v0q5 4 8 6q1 1 3 2h1l1 1l6 3t6 2h1q1 0 1 1q3 0 5 1q6 1 13 1h24q7 0 13 -1q2 -1 5 -2h1h1q4 -1 6 -2l6 -3l1 -1h1q2 -1 3 -2q4 -2 8 -6v0l2 -2q4 -3 8 -8v0v-1q12 -15 14 -35v-2v-4v-59q49 -12 95 -40l42 42q16 16 39 19
q1 0 2 1h9h2h2h1q5 -1 9 -1q1 -1 4 -1q0 -1 1 -1h1q4 -1 6 -2l6 -3l1 -1h1l4 -2v0q6 -4 10 -9l17 -17q5 -4 9 -10l2 -4v-1l1 -1l3 -6t2 -6v-1q0 -1 1 -2q0 -2 1 -3q0 -4 1 -10v0v-2v-11q0 -1 -1 -2q-3 -23 -19 -39l-42 -42q28 -46 40 -95h59h4h2q20 -2 35 -14h1q5 -4 8 -8
l2 -2v0v0q4 -5 6 -8q1 -1 2 -3v-1l1 -1l3 -6t2 -6v-1l1 -1q0 -3 1 -5q1 -6 1 -13v-24z" />
    <glyph glyph-name="jiaguanzhu" unicode="&#xe625;" horiz-adv-x="1120" 
d="M514.5 -122q-23.5 0 -59.5 36l-355 369q-28 45 -44.5 87.5t-16.5 95.5q0 115 73.5 196.5t176.5 81.5q129 0 226 -115q101 115 226 115q103 0 176.5 -81.5t73.5 -196.5h-47q0 57 -24 109t-71.5 87t-107.5 35q-115 0 -209 -119l-18 -24l-19 25q-87 118 -206 118
q-60 0 -107.5 -35t-71.5 -87t-24 -109q0 -44 13.5 -80t38.5 -77l350 -363q21 -21 27 -22q5 1 26 23l46 47l33 -32l-45 -48q-37 -36 -60.5 -36zM641 233h374v-47h-374v47zM805 397h46v-375h-46v375z" />
    <glyph glyph-name="taiyang" unicode="&#xe672;" 
d="M443 659h131l-67 149l-64 -149v0zM512 620q131 0 224 -93t93 -225t-93 -225t-224.5 -93t-224.5 93t-93 225t93 225t225 93v0zM631 646l113 -66l16 162l-129 -96v0zM787 540l65 -113l95 132l-160 -19v0zM869 371v-131l149 67l-149 64v0zM856 183l-66 -113l162 -16l-96 129
v0zM750 27l-113 -65l132 -95l-19 160v0zM581 -55h-131l67 -149l64 149v0zM393 -42l-114 66l-16 -163l130 97v0zM237 63l-66 114l-95 -132l161 18v0zM155 233v131l-149 -67l149 -64v0zM168 421l65 113l-162 16l97 -129v0zM273 577l114 65l-133 95z" />
    <glyph glyph-name="iconfontshanchu" unicode="&#xe614;" 
d="M660 449h50v-397h-50v397zM536 52v397h-25h-24v-397h24h25zM313 449h49v-397h-49v397zM710 598v100q0 20 -14.5 34.5t-35.5 14.5h-298q-20 0 -34.5 -14.5t-14.5 -34.5v-100h-249v-49h100v-646q0 -21 14.5 -35.5t34.5 -14.5h596q21 0 35.5 14.5t14.5 35.5v646h100v49h-249
zM362 698h298v-100h-298v100zM809 -97h-596v646h596v-646z" />
    <glyph glyph-name="huifu" unicode="&#xe647;" 
d="M831 674h-637q-45 0 -76.5 -32t-31.5 -77v-341q0 -45 31.5 -76.5t76.5 -31.5h233l182 -162q6 -6 16 -6q11 0 18 8t6.5 18t-8.5 17l-188 168q-7 6 -17 6h-242q-24 0 -41.5 17.5t-17.5 41.5v341q0 25 17.5 42.5t41.5 17.5h637q25 0 42.5 -17.5t17.5 -42.5v-341
q0 -24 -17.5 -41.5t-42.5 -17.5h-143q-11 0 -18 -7.5t-7 -17.5t7 -17t18 -7h143q45 0 77 31.5t32 76.5v341q0 45 -32 77t-77 32v0zM289 381q0 -19 13 -32t31.5 -13t32 13t13.5 31.5t-13.5 32t-32 13.5t-31.5 -13.5t-13 -31.5v0zM468 381q0 -19 13 -32t31.5 -13t31.5 13
t13 31.5t-13 32t-31.5 13.5t-31.5 -13.5t-13 -31.5v0zM736 381q0 18 -13 31.5t-31.5 13.5t-31.5 -13.5t-13 -32t13 -31.5t31.5 -13t31.5 13t13 32v0zM736 381z" />
    <glyph glyph-name="weixin" unicode="&#xe63b;" 
d="M499 467q20 0 32 12t12 32t-12 32t-32 12q-21 0 -37 -12.5t-16 -31.5t16 -31.5t37 -12.5zM253 555q-21 0 -37 -12.5t-16 -31.5t16 -31.5t37 -12.5q20 0 32 12t12 32t-12 32t-32 12zM1024 186q0 104 -84 182t-203 87v6q-24 111 -130 185t-240 74q-99 0 -184 -42
t-134 -114.5t-49 -158.5q0 -142 138 -243l-32 -94q-3 -10 5 -17q4 -4 10 -4q4 0 8 2l117 59l15 -3q68 -14 106 -14q17 0 34 1q7 1 11 6q33 -81 114.5 -132t183.5 -51q37 0 103 17l91 -50q3 -2 7 -2q6 0 11 3q8 7 5 18l-23 77q120 95 120 208zM399 124q-16 -1 -32 -1
q-35 0 -100 13l-20 4q-5 1 -10 -1l-88 -45l23 69q3 12 -6 19q-134 93 -134 223q0 77 45 142t122 103t168 38q123 0 219.5 -66t118.5 -166q-129 -1 -219.5 -80t-90.5 -190q0 -31 9 -63q-3 1 -5 1zM875 -4q-8 -6 -5 -17l15 -50l-62 34q-4 2 -8 2q-2 0 -4 -1q-67 -17 -101 -17
q-117 0 -200 70t-83 169t83 169t200 70q115 0 198.5 -71t83.5 -168q0 -49 -30 -98t-87 -92zM613 300q-13 0 -24 -11t-11 -24t11 -24t24 -11q19 0 31.5 10.5t12.5 24.5t-12.5 24.5t-31.5 10.5zM806 300q-13 0 -24 -11t-11 -24t11 -24t24 -11q19 0 31.5 10.5t12.5 24.5
t-12.5 24.5t-31.5 10.5z" />
    <glyph glyph-name="gouwuche" unicode="&#xe611;" 
d="M374 45q-40 0 -68 -28t-28 -67.5t28 -67.5t68 -28t68 28t28 67.5t-28 67.5t-68 28zM374 -104q-22 0 -37.5 16t-15.5 38t15.5 37.5t37.5 15.5t37.5 -15.5t15.5 -37.5t-15.5 -38t-37.5 -16zM215 620l-22 128h-128v-43h89l103 -596h596v43h-557l-12 66l569 61l106 298v43
h-744zM831 322l-554 -62l-55 317h688zM735.5 45q-39.5 0 -67.5 -28t-28 -67.5t28 -67.5t67.5 -28t67.5 28t28 67.5t-28 67.5t-67.5 28zM736 -104q-22 0 -38 16t-16 38t16 37.5t38 15.5t37.5 -15.5t15.5 -37.5t-15.5 -38t-37.5 -16z" />
    <glyph glyph-name="fenxiang" unicode="&#xe60a;" 
d="M743 166q-45 0 -82.5 -22.5t-58.5 -59.5l-199 106q22 38 22 82q0 31 -12 60l220 140q48 -62 127 -62q67 0 114 47t47 113.5t-47 114t-114 47.5t-114 -47.5t-47 -113.5q0 -31 11 -59l-220 -140q-49 61 -126 61q-67 0 -114 -47.5t-47 -114t47 -114t114 -47.5q63 0 110 44
l211 -114q-3 -17 -3 -35q0 -66 47 -113.5t113.5 -47.5t114 47.5t47.5 114t-47.5 113.5t-113.5 47zM760 681q46 0 78.5 -32t32.5 -78t-32.5 -78.5t-78.5 -32.5t-78 32.5t-32 78.5t32 78t78 32zM264 161q-46 0 -78.5 32.5t-32.5 78t32.5 78t78.5 32.5t78.5 -32.5t32.5 -78
t-32.5 -78t-78.5 -32.5zM743 -105q-46 0 -78.5 32t-32.5 78t32.5 78.5t78.5 32.5t78 -32.5t32 -78.5t-32 -78t-78 -32z" />
    <glyph glyph-name="more" unicode="&#xe62c;" 
d="M208 384q-40 0 -68 -28t-28 -68t28 -68t68 -28t68 28t28 68t-28 68t-68 28zM816 384q-40 0 -68 -28t-28 -68t28 -68t68 -28t68 28t28 68t-28 68t-68 28zM512 384q-40 0 -68 -28t-28 -68t28 -68t68 -28t68 28t28 68t-28 68t-68 28z" />
    <glyph glyph-name="bianji" unicode="&#xe61c;" 
d="M819 -76h-614q-28 0 -48 20t-20 49v614q0 28 20 48t48 20h341h46h22q10 0 16.5 -6.5t6.5 -16t-6.5 -16t-16.5 -6.5h-22h-46h-318q-19 0 -32.5 -13.5t-13.5 -32.5v-569q0 -19 13.5 -32t32.5 -13h568q19 0 32.5 13t13.5 32v364v42v4q0 9 6.5 16t16 7t16 -7t6.5 -16v-46
v-386q0 -29 -20 -49t-48 -20zM448 226q-7 -7 -16.5 -7t-16 6.5t-6.5 16t6 16.5l409 411q7 7 16.5 7t16 -7t6.5 -16t-6 -16z" />
    <glyph glyph-name="jiahao" unicode="&#xe669;" 
d="M809 325h-272v272q0 10 -7.5 17.5t-17.5 7.5t-17.5 -7.5t-7.5 -17.5v-272h-272q-10 0 -17.5 -7.5t-7.5 -17.5t7.5 -17.5t17.5 -7.5h272v-272q0 -10 7.5 -17.5t17.5 -7.5t17.5 7.5t7.5 17.5v272h272q10 0 17.5 7.5t7.5 17.5t-7.5 17.5t-17.5 7.5z" />
    <glyph glyph-name="shoucang" unicode="&#xe63e;" 
d="M1014 502l-349 53l-157 335l-157 -335l-350 -53l253 -259l-60 -366l314 173l313 -173l-59 366zM508 123l-235 -131l45 266l-203 206l274 36l119 253l118 -253l273 -39l-201 -204l42 -266z" />
    <glyph glyph-name="wode" unicode="&#xe66e;" 
d="M970 -182q-18 129 -102 228t-207 138q82 39 132 116.5t50 171.5q0 131 -93.5 224.5t-225 93.5t-225 -93.5t-93.5 -224.5q0 -94 50.5 -171.5t132.5 -116.5q-122 -39 -206.5 -137.5t-102.5 -226.5q-2 -5 -2 -11q0 -12 8 -20t20 -8t20.5 8t8.5 20v1q20 145 131 242.5
t259 97.5t258.5 -97t131.5 -241v-3q0 -12 8.5 -20t20 -8t20 8t8.5 20q0 5 -2 9v0zM525 209q-109 0 -186 77t-77 186t77 186t186 77t186 -77t77 -186t-77 -186t-186 -77v0zM525 209z" />
    <glyph glyph-name="baocun" unicode="&#xe60f;" 
d="M820 -156h-616q-63 0 -108 45t-45 108v606q0 63 45 108t108 45h616q63 0 108 -45t45 -108v-606q0 -63 -45 -108t-108 -45v0zM204 696q-38 0 -65.5 -27t-27.5 -66v-606q0 -39 27.5 -66t65.5 -27h616q38 0 65.5 27t27.5 66v606q0 39 -27.5 66t-65.5 27h-616v0zM807 299
h-590v457h590v-457v0zM277 358h470v338h-470v-338v0zM600 609h60v-199h-60v199v0zM600 609z" />
    <glyph glyph-name="meiriyicai" unicode="&#xe608;" 
d="M224 -212q-32 0 -56 21t-24 64v353h-74q-21 0 -40 24t-19 56v9l472 489q8 8 23 8q17 0 25 -8q1 -1 107 -109t230.5 -234.5t137.5 -140.5l7 -7v-9q0 -32 -11 -50q-15 -26 -46 -26h-72l-1 -358v-3q-4 -18 -18 -38q-27 -41 -72 -41h-175v23q1 318 0 336q0 5 -3.5 12t-7.5 7
h-189q-4 0 -8.5 -5.5t-4.5 -12.5v-360h-175h-6zM73 272h117v-399q0 -39 34 -39h2h2h1h130v314q0 26 17.5 45t41.5 19h189q28 0 45 -26q12 -18 12 -37q1 -22 0 -315h128q32 0 45 42l1 398h117q5 0 7 3q4 6 4 18q-30 31 -235 239.5t-224 228.5l-450 -465q3 -18 16 -26v0z" />
    <glyph glyph-name="shijian" unicode="&#xe613;" 
d="M512 636q91 0 168.5 -45t122.5 -122.5t45 -169t-45 -169t-122.5 -122.5t-168.5 -45t-168.5 45t-122.5 122.5t-45 169t45 169t122.5 122.5t168.5 45zM512 667q-100 0 -184.5 -49.5t-133.5 -134t-49 -184t49 -184t133.5 -133.5t184.5 -49t184.5 49t133.5 133.5t49 184
t-49 184t-133.5 134t-184.5 49.5v0v0zM687 162q-4 0 -7 3l-176 138q-4 4 -4 10v246q0 5 3.5 8.5t8.5 3.5t8.5 -3.5t3.5 -8.5v-241l171 -134q9 -8 2 -17q-4 -5 -10 -5v0zM687 162z" />
    <glyph glyph-name="wodetequan" unicode="&#xe697;" 
d="M923 475q-33 81 -95 143t-143 96q-83 35 -174 35t-174 -35q-81 -34 -142.5 -96t-95.5 -143q-36 -83 -36 -174t36 -174q34 -80 95.5 -142t142.5 -96q83 -35 174 -35q149 0 270 91v0v1q7 7 7 17t-7.5 17.5t-18.5 7.5q-10 0 -17 -6l-1 -1q-104 -76 -233 -76
q-106 0 -197 52.5t-143.5 143t-52.5 197.5t52.5 197.5t143.5 143.5t197.5 53t197.5 -53t143.5 -143.5t52.5 -197.5q0 -99 -44 -184l-1 -1v-1q-1 -4 -1 -6q0 -11 7.5 -18.5t17.5 -7.5q7 0 12 3l5 3l5 6l2 4v0q51 98 51 205q0 91 -36 174zM267 483l-10 -8v-115q0 -121 66 -222
t177 -149l11 -5l11 5q111 48 177 149t66 222v115l-10 8q-106 89 -244 89t-244 -89zM313 448q88 67 198 67t198 -67v-88q0 -100 -54 -185.5t-144 -128.5q-90 43 -144 128.5t-54 185.5v88zM471 209q16 -29 45 -30h1q27 0 47 34v0l67 147q5 10 1 21t-15 16q-5 3 -11 3
q-18 0 -26 -17l-64 -139l-73 140q-8 16 -25 16q-7 0 -13 -3q-10 -6 -14 -17t2 -22l77 -149h1z" />
    <glyph glyph-name="dianhua" unicode="&#xe68e;" 
d="M397 507l-109 -111q46 -102 131.5 -191t184.5 -122l94 94q223 -39 273 -64q63 -30 51 -125q-3 -25 -19.5 -57.5t-44.5 -65t-73.5 -54.5t-96.5 -23q-111 -1 -256 74.5t-260 196.5q-61 65 -110.5 130t-89.5 136t-59 142.5t-11 135.5q7 49 28 88t45.5 60.5t54.5 35.5
t49.5 18.5t35.5 6.5q59 4 92 -38q14 -16 36 -83t38 -126l16 -58v0zM273 738q-25 33 -80 20q-14 -3 -33 -12.5t-43 -27t-43 -49.5t-24 -71q-12 -97 55 -238t189 -259q258 -250 465 -267q40 -3 75 8t58.5 28.5t42 40t27.5 40t13 30.5q7 28 2 52.5t-20 35.5q-12 9 -72.5 23
t-115.5 25l-55 10l-99 -97q-123 40 -227 143.5t-152 237.5l107 108q0 1 -13.5 49.5t-31 104t-25.5 65.5v0z" />
    <glyph glyph-name="jinpai07" unicode="&#xe610;" 
d="M512 528q-100 0 -185.5 -49.5t-135 -134.5t-49.5 -185.5t49.5 -186t135 -135t185.5 -49.5t185.5 49.5t135 135t49.5 186t-49.5 185.5t-135 134.5t-185.5 49.5zM512 -155q-130 0 -221.5 92t-91.5 221.5t91.5 221t221.5 91.5t221.5 -91.5t91.5 -221t-91.5 -221.5
t-221.5 -92zM882 755v-154q0 -46 -38 -78l-55 -45q-8 -7 -18 -7q-14 0 -22 11q-8 9 -6.5 20.5t10.5 19.5l54 44q18 16 18 35v154h-171v-175q0 -12 -8 -20t-20 -8t-20.5 8t-8.5 20v175h-163v-175q0 -12 -8.5 -20t-20 -8t-20 8t-8.5 20v175h-178v-154q0 -6 5 -17.5t13 -16.5
l54 -45q9 -8 10.5 -19.5t-6 -20.5t-19.5 -10.5t-21 6.5l-54 44q-18 14 -28.5 37.5t-10.5 41.5v154q0 24 16.5 40.5t40.5 16.5h626q24 0 40.5 -16.5t16.5 -40.5zM703 265h-110l-37 113q-4 14 -15.5 24.5t-28.5 10.5t-28.5 -10t-14.5 -22l-37 -116h-116q-17 0 -29.5 -9
t-17.5 -24q-5 -16 0 -29.5t15 -19.5l98 -71l-36 -112q-7 -12 -4 -27.5t17 -25.5q13 -9 28 -9q14 0 27 8l98 71l93 -67q15 -13 34 -13q14 0 26 8q13 10 16.5 25.5t-2.5 27.5l-37 114l92 66q12 8 18.5 22.5t0.5 31.5q-11 33 -50 33v0zM576 133l39 -120l-103 74l-102 -74
l39 120l-103 75h127l39 120l39 -120h127z" />
    <glyph glyph-name="rili" unicode="&#xe60b;" 
d="M1023 469v7v255h-41v0h-127q-9 0 -15 -6t-6 -14v0q0 -9 6 -15t15 -6h127v-214h-939v214h127q9 0 15 6t6 15v0q0 8 -6 14t-15 6h-127v0h-41v-255v-7v-624q0 -22 15 -37t37 -15h917q21 0 36.5 15t15.5 37v624zM971 -166h-917q-5 0 -8 3t-3 8v590h939v-590q0 -5 -3.5 -8
t-7.5 -3zM253.5 628q8.5 0 14.5 6t6 15v130q0 8 -6 14.5t-14.5 6.5t-14.5 -6.5t-6 -14.5v-130q0 -9 6 -15t14.5 -6zM765.5 628q8.5 0 14.5 6t6 15v130q0 8 -6 14.5t-14.5 6.5t-14.5 -6.5t-6 -14.5v-130q0 -9 6 -15t14.5 -6zM342 690h338q9 0 15 6t6 15v0q0 8 -6 14t-15 6
h-338q-8 0 -14 -6t-6 -14v0q0 -9 6 -15t14 -6zM681 74v121q0 37 -26 63.5t-63.5 26.5t-63.5 -26.5t-26 -63.5v-121q0 -37 26 -63t63.5 -26t63.5 26t26 63zM543 74v121q0 20 14 34.5t34.5 14.5t34.5 -14.5t14 -34.5v-121q0 -20 -14 -34t-34.5 -14t-34.5 14t-14 34zM424 6v257
q0 9 -6 15t-14 6q-10 0 -16 -7q-4 -3 -12 -11l-32 -32q-6 -6 -6 -14.5t6 -14.5v0q6 -6 14.5 -6t14.5 6l10 10v-209q0 -8 6 -14.5t14.5 -6.5t14.5 6.5t6 14.5z" />
    <glyph glyph-name="shouji" unicode="&#xe626;" 
d="M787 -212h-550q-43 0 -76 33t-33 76v806q0 43 33 76t76 33h550q43 0 76 -33t33 -76v-806q0 -43 -33 -76t-76 -33zM237 767q-25 0 -44.5 -18t-19.5 -46v-806q0 -25 18 -44.5t46 -19.5h550q25 0 44.5 18t19.5 46v806q0 25 -18 44.5t-46 19.5h-550zM512 -65q-43 0 -76 33
t-33 76t33 76t76 33t76 -33t33 -76t-33 -76t-76 -33zM512 108q-25 0 -44.5 -18t-19.5 -46q0 -29 17.5 -46.5t46.5 -17.5q25 0 44.5 18t19.5 46t-19.5 46t-44.5 18zM384 620h256v-45h-256v45z" />
    <glyph glyph-name="yonghu" unicode="&#xe60c;" 
d="M614.5 752q-105.5 0 -180 -74.5t-74.5 -179.5q0 -72 37 -132t98 -93q-127 -39 -207.5 -146.5t-80.5 -243.5q0 -10 7 -17t17 -7t17 7t7 17q0 98 48 180.5t130.5 131t179.5 48.5q4 -1 7 0q104 3 176.5 77t72.5 178q0 105 -74.5 179.5t-180 74.5zM614.5 292
q-85.5 0 -145.5 60.5t-60 145.5t60 145.5t145.5 60.5t146 -60.5t60.5 -145.5t-60.5 -145.5t-146 -60.5zM904 171q-8 8 -18 8t-17 -7.5t-7 -17.5t7 -17q51 -51 78 -116.5t27 -137.5q0 -10 7 -17t17 -7t17.5 7t7.5 17q0 82 -31 156.5t-88 131.5v0zM358 286v0v0q0 10 -7.5 17
t-17.5 7q-66 0 -113 50t-47 121t47 121t113 50q10 0 17.5 7t7.5 17t-7.5 17t-17.5 7q-86 0 -147 -64t-61 -155q0 -59 28 -109.5t75 -79.5q-100 -36 -163 -127t-63 -205q0 -10 7 -17t17 -7t17.5 7t7.5 17q0 125 82.5 213t199.5 88q10 0 17.5 7.5t7.5 17.5v0zM358 286z" />
    <glyph glyph-name="unie60b" unicode="&#xe6a4;" 
d="M933 549q-11 3 -28 5t-47 3.5t-51 2t-70 1.5t-75 2q8 37 8 105q0 84 -50.5 150t-107.5 66q-39 0 -67 -28t-29 -67q0 -28 -5.5 -56.5t-18 -62t-39.5 -63.5t-65 -50q-22 -12 -34 -17l2 -2q-30 26 -64 26h-96q-40 0 -68 -28t-28 -68v-512q0 -40 28 -68t68 -28h96q28 0 51 15
t34 40h2t3.5 -1t4.5 -1h0.5h0.5q36 -9 130 -31q96 -22 191 -22h175q80 0 114 62q8 16 14 34q8 27 1 56q34 24 53 83q15 49 0 87q33 32 42 89q7 40 -12 76q26 29 27 69l1 7v16q0 34 -23.5 65.5t-67.5 44.5zM224 -44q0 -13 -9.5 -22.5t-22.5 -9.5h-96q-13 0 -22.5 9.5
t-9.5 22.5v512q0 13 9.5 22.5t22.5 9.5h96q13 0 22.5 -9.5t9.5 -22.5v-512zM959 419q-2 -47 -63 -47h-64q-7 0 -11.5 -4.5t-4.5 -11.5t4.5 -11.5t11.5 -4.5h62q32 0 43 -19.5t8 -39.5q-11 -69 -69 -69h-76q-7 0 -11.5 -4.5t-4.5 -11.5t4.5 -11.5t11.5 -4.5h63
q25 0 36.5 -11.5t9.5 -26t-4 -28.5q-1 -1 -2 -4q-5 -15 -8.5 -22.5t-12 -17.5t-24 -14t-38.5 -4h-52q-7 0 -11.5 -4.5t-4.5 -11.5t4.5 -11.5t11.5 -4.5h50q23 0 30 -16t3 -29q-2 -8 -9 -23q-15 -28 -58 -28h-175q-88 0 -177 20q-126 29 -149 36q-3 0 -7.5 1.5t-12 9
t-7.5 17.5v442q0 26 25 33q1 1 3.5 1.5t3.5 1.5q52 21 91 56.5t60 77t30.5 83t10.5 85.5q0 12 9 22t23 10q28 0 61 -46.5t33 -105.5q0 -56 -5 -82t-25 -86q152 0 226.5 -2t87.5 -3.5t32 -6.5q38 -11 38 -49q0 -1 -1 -20zM144 52q-20 0 -34 -14t-14 -34t14 -34t34 -14t34 14
t14 34t-14 34t-34 14zM144 -12q-7 0 -11.5 4.5t-4.5 11.5t4.5 11.5t11.5 4.5t11.5 -4.5t4.5 -11.5t-4.5 -11.5t-11.5 -4.5z" />
    <glyph glyph-name="wechaticon16" unicode="&#xe61f;" 
d="M761 -67h-498q-42 0 -71.5 29.5t-29.5 71.5v400q0 42 27.5 71.5t66.5 29.5h64v-60h-64q-14 0 -24 -12t-10 -29v-400q0 -17 12 -29.5t29 -12.5h498q17 0 29 12.5t12 29.5v400q0 17 -10 29t-24 12h-64v60h64q39 0 66.5 -29.5t27.5 -71.5v-400q0 -42 -29.5 -71.5
t-71.5 -29.5zM681 353.5q-8 8.5 -20 9t-20 -7.5l-101 -92v412q0 11 -8 19.5t-20 8.5t-20 -8.5t-8 -19.5v-410l-96 90q-8 8 -20 7.5t-20 -9t-7.5 -20t8.5 -19.5l143 -136l1 -1l4 -2v-1l4 -2v0q1 0 4 -1h0.5h0.5q3 -1 6 -1t5 1h1.5h0.5q3 1 4 1l2 1t3 2l1 1q1 0 1.5 0.5
l0.5 0.5l148 136q9 8 9.5 20t-7.5 20.5z" />
    <glyph glyph-name="vip" unicode="&#xe621;" 
d="M402 370l-80 -279h-33l-80 279h39l56 -211h3l56 211h39v0zM531 94h-37v276h37v-276v0zM808 286q0 -39 -22.5 -61.5t-63.5 -22.5h-46v-108h-37v276h83q41 0 63.5 -22.5t22.5 -61.5v0zM771 286q0 31 -14.5 42t-43.5 11h-37v-106h37q29 0 43.5 11t14.5 42v0zM957 4
q0 -25 -18 -43t-43 -18h-776q-26 0 -43.5 18t-17.5 43v592q0 25 17.5 43t43.5 18h776q25 0 43 -18t18 -43v-592v0zM908 470h-804v-448q0 -13 9 -22.5t23 -9.5h740q13 0 22.5 9.5t9.5 22.5v448v0zM908 523v52q0 13 -9.5 22.5t-22.5 9.5h-740q-14 0 -23 -9.5t-9 -22.5v-52h804
v0zM908 523z" />
    <glyph glyph-name="wodedingdan18" unicode="&#xe62d;" horiz-adv-x="1025" 
d="M1014 579l-438 -615q-23 -32 -64 -32t-64 32l-438 615q-21 30 0 59.5t63 29.5h878q42 0 63 -29.5t0 -59.5z" />
    <glyph glyph-name="jiaru" unicode="&#xe62b;" 
d="M511 -147q-91 0 -173.5 35.5t-142.5 95.5t-95.5 143t-35.5 174t35.5 173.5t95.5 142.5t142.5 95.5t173.5 35.5t174 -35.5t143 -95.5t95 -142.5t35 -173.5t-35 -174t-95 -143t-143 -95.5t-174 -35.5zM511.5 707q-110.5 0 -204.5 -54.5t-148 -148t-54 -204t54 -204
t148 -148t204.5 -54.5t204 54.5t148 148t54.5 204t-54.5 204t-148 148t-204 54.5zM531 77h-40v203h-203v41h203v203h40v-203h204v-41h-204v-203z" />
    <glyph glyph-name="002" unicode="&#xe62e;" 
d="M1007 500q0 -74 -52.5 -126.5t-126.5 -52.5q-46 0 -85.5 21.5t-63.5 58.5q-4 5 -9 5t-9 -5q-24 -37 -63.5 -58.5t-85.5 -21.5t-85.5 21.5t-63.5 58.5q-4 5 -9 5t-9 -5q-24 -37 -63.5 -58.5t-85.5 -21.5q-74 0 -126.5 52.5t-52.5 126.5v10v0l101 284q8 23 25 37
q20 16 42 16h654q20 0 39 -14q20 -16 28 -41l101 -282v0v-10zM965 510l-81 242q-7 22 -24 37q-20 16 -43 16h-610q-21 0 -40 -15q-20 -15 -28 -41l-80 -239h1q0 -1 -0.5 -4.5t-0.5 -5.5q0 -57 40 -97t97 -40t97 40t40 97v0q0 4 3 7t7 3h22q4 0 7 -3t3 -7v0q0 -57 40 -97
t97 -40t97 40t40 97v0q0 4 3 7t7 3h22q4 0 7 -3t3 -7v0q0 -57 40 -97t97 -40t97 40t40 97q0 2 -0.5 5.5t-0.5 4.5h1zM860 531h-696q-2 1 -5.5 1.5t-9.5 6t-6 14.5t5.5 14t10.5 6l5 1h696q2 0 5.5 -1t9.5 -6t6 -14.5t-5.5 -14.5t-10.5 -6zM122 300q9 0 14.5 -5.5t6.5 -10.5
v-5v-274q0 -2 0.5 -5t2.5 -10t5.5 -12.5t12.5 -10t21 -4.5h654q11 0 20 4.5t13 10t6 13t2.5 10t0.5 4.5v274q0 2 0.5 5.5t6 9.5t14.5 6t14 -5.5t6 -10.5l1 -5v-274q0 -24 -7 -41t-15.5 -25t-19 -12.5t-15 -5t-6.5 -0.5v0h-696h-6.5t-15 4t-19 10t-15.5 18.5t-7 30.5v295
q0 2 1 5.5t6 9.5t14 6z" />
    <glyph glyph-name="app-audio" unicode="&#xe64e;" 
d="M855 433q-28 67 -79.5 118.5t-118.5 79.5q-69 29 -145 29t-145 -29q-67 -28 -118.5 -79.5t-79.5 -118.5q-29 -69 -29 -145t29 -145q28 -67 79.5 -118.5t118.5 -79.5q69 -29 145 -29t145 29q67 28 118.5 79.5t79.5 118.5q29 69 29 145t-29 145zM512 -47q-91 0 -168 45
t-122 122t-45 168t45 168t122 122t168 45t168 -45t122 -122t45 -168t-45 -168t-122 -122t-168 -45zM598 286.5q0 -103.5 -78 -176.5l17 -28l1 0.5l1 0.5q88 84 88 203t-88 203q0 1 -1 1.5l-1 0.5l-17 -28q78 -73 78 -176.5zM397 227l16 -28q39 36 39 87t-39 87l-16 -27
q27 -25 27 -60t-27 -59zM458 403q52 -48 52 -117t-52 -117l18 -29l0.5 0.5l1.5 1.5q63 60 63 144.5t-63 144.5q-1 0 -1.5 0.5t-0.5 1.5z" />
    <glyph glyph-name="yuyin" unicode="&#xe640;" 
d="M165 302q0 -22 11.5 -41.5t31 -31t42 -11.5t42 11.5t31 31t11.5 42t-11.5 42t-31 31t-42 11.5t-42 -11.5t-31 -31t-11.5 -42.5v0zM415 31q-19 0 -31.5 13.5t-12.5 32.5q0 8 2.5 15t7 12t8 7.5t9.5 6.5l6 4q45 29 71.5 77t26.5 103.5t-26.5 103t-71.5 77.5q-33 17 -33 44
q0 19 14 33t33 14q9 0 17.5 -2.5t12.5 -5.5l4 -2q66 -42 105 -111.5t39 -150.5t-39 -150t-105 -111q-12 -10 -37 -10v0zM586 -147q-18 3 -29.5 16t-11.5 31q0 20 23 41q0 1 8.5 8t17 14.5t21 20t23 24t22.5 27t20 29.5q22 38 33 62.5t20 70.5t7 103q-4 107 -43.5 182
t-115.5 140q-32 23 -32 51q0 31 32 45q13 4 23.5 3t17.5 -5l7 -3q97 -78 154.5 -185t57.5 -228q10 -112 -46.5 -236.5t-165.5 -201.5l-6 -3t-15.5 -4.5t-21.5 -1.5z" />
    <glyph glyph-name="wodequanzi" unicode="&#xe7a3;" 
d="M973 368q0 120 -62 221t-168 159.5t-231 58.5t-231.5 -58.5t-168.5 -159.5t-62 -221q0 -133 76 -241.5t200 -160.5l-83 -111q-7 -13 -3 -27.5t17.5 -22t28.5 -3.5t23 17l92 123q54 -12 111 -12q52 0 103 11q1 -2 2 -3l94 -131q5 -8 17.5 -11.5t23.5 -2.5h11q13 8 17 23
t-4 29l-86 119q127 50 205 159.5t78 244.5zM511.5 -5q-107.5 0 -199 50t-144.5 136t-53 187.5t53 187.5t144.5 136t199 50t199 -50t144.5 -136t53 -187.5t-53 -187.5t-144.5 -136t-199 -50zM393.5 428q-22.5 0 -38.5 -15t-16 -36t16 -35.5t38.5 -14.5t38.5 14.5t16 35.5
t-16 36t-38.5 15zM649.5 428q-22.5 0 -38.5 -15t-16 -36t16 -35.5t38.5 -14.5t38.5 14.5t16 35.5t-16 36t-38.5 15z" />
    <glyph glyph-name="jubao" unicode="&#xe69e;" horiz-adv-x="1025" 
d="M524 441q-9 0 -16 -6.5t-7 -15.5v-268q0 -9 7 -15.5t16 -6.5t15.5 6.5t6.5 15.5v268q0 9 -6.5 15.5t-15.5 6.5zM524 84q-9 0 -16 -6.5t-7 -15.5v-45q0 -9 7 -15.5t16 -6.5t15.5 6.5t6.5 15.5v45q0 9 -6.5 15.5t-15.5 6.5zM1011 -67l-424 736q-24 43 -63 43t-64 -43
l-423 -736q-14 -24 -14 -46q0 -26 20 -45.5t58 -19.5h846q37 0 57 19.5t20 45.5q0 22 -13 46zM947 -133h-846q-33 0 -33 20q0 11 7 23l424 737q11 19 24.5 19t25.5 -19l423 -737q7 -12 7 -23q0 -20 -32 -20z" />
    <glyph glyph-name="maiche" unicode="&#xe602;" 
d="M856 -48h-688q-38 0 -64.5 26.5t-26.5 64.5v435q0 37 26.5 64t64.5 27h688q38 0 64.5 -27t26.5 -64v-435q0 -38 -26.5 -64.5t-64.5 -26.5zM168 532q-23 0 -39 -16t-16 -38v-435q0 -23 16 -39t39 -16h688q23 0 39 16t16 39v435q0 22 -16 38t-39 16h-688zM268 321
q-13 18 -22.5 24t-21.5 6t-20.5 -8t-8.5 -20t8 -21.5t36 -30t41 -39t13 -38.5q0 -26 -20 -45.5t-48 -19.5q-47 0 -74 53l24 14q21 -40 47 -40q17 0 29 11t12 25.5t-10 27t-35 31.5t-34 29t-13.5 21t-4.5 22q0 24 16.5 40.5t42.5 16.5q21 0 36 -10.5t29 -30.5zM549 135h-30
l-37 80h-98l-37 -80h-31l113 248h9zM470 243l-37 81l-36 -81h73zM698 135h-118v239h28v-212h90v-27zM870 346h-111v-69h110v-27h-110v-87h110v-28h-138v239h139v-28zM739 552l-194 103q-33 18 -66 0l-194 -103q-15 -8 -31 -3.5t-23 19.5v0l254 136q27 14 54 0l254 -136v0
q-7 -15 -23 -19.5t-31 3.5z" />
    <glyph glyph-name="tupian" unicode="&#xe627;" 
d="M328 383q38 0 65 26.5t27 65t-27 65t-65 26.5t-65 -26.5t-27 -65t27 -65t65 -26.5zM328.5 511q15.5 0 26 -10.5t10.5 -26t-10.5 -26t-26 -10.5t-26 10.5t-10.5 26t10.5 26t26 10.5zM960 713h-896q-20 0 -34 -14t-14 -34v-730q0 -20 14 -34t34 -14h896q20 0 34 14t14 34
v730q0 20 -14 34t-34 14zM953 -21q0 -37 -37 -37h-808q-17 0 -27 10t-10 27v642q0 37 37 37h808q17 0 27 -10t10 -27v-642zM808 408l-235 -258l-169 119q-9 9 -23 8q-13 1 -22 -8l-166 -220q-9 -8 -9 -20t8.5 -20.5t21 -8.5t20.5 8l153 203l169 -119q9 -9 22 -9t21 9
l251 275q8 9 8 21t-8.5 20.5t-20.5 8.5t-21 -9z" />
    <glyph glyph-name="xingxing" unicode="&#xe622;" 
d="M512 84l-238 -91q-23 -9 -38 2.5t-14 36.5l14 249l-161 195q-15 19 -9.5 37t29.5 24l246 64l138 211q14 21 33 21t33 -21l138 -211l246 -64q24 -6 29.5 -24t-9.5 -37l-161 -195l14 -249q1 -25 -14 -36.5t-38 -2.5l-238 91v0z" />
    <glyph glyph-name="liquan" unicode="&#xe623;" 
d="M767 561q0 6 -4.5 11t-11 5t-11 -5t-4.5 -11v-44q0 -6 4.5 -10.5t11 -4.5t11 4.5t4.5 10.5v44v0zM767 449q0 7 -4.5 11.5t-11 4.5t-11 -4.5t-4.5 -11.5v-43q0 -6 4.5 -11t11 -5t11 5t4.5 11v43v0zM767 338q0 6 -4.5 10.5t-11 4.5t-11 -4.5t-4.5 -10.5v-44q0 -6 4.5 -10.5
t11 -4.5t11 4.5t4.5 10.5v44v0zM751 242q-6 0 -10.5 -4.5t-4.5 -11.5v-43q0 -8 4.5 -17t10.5 -9t11 9t5 17v43q0 7 -4.5 11.5t-11.5 4.5v0zM337 521q7 0 11.5 4.5t4.5 11t-4.5 11t-11.5 4.5h-84q-6 0 -10.5 -4.5t-4.5 -11t4.5 -11t10.5 -4.5h84v0zM607 521q6 0 10.5 4.5
t4.5 11t-4.5 11t-10.5 4.5h-84q-6 0 -10.5 -4.5t-4.5 -11t4.5 -11t10.5 -4.5h84v0zM611 241q4 0 8 2q13 9 4 22l-76 113h62q7 0 11.5 4.5t4.5 11t-4.5 11t-11.5 4.5h-247l27 41h220q7 0 11.5 4.5t4.5 10.5t-4.5 11t-11.5 5h-199l57 85q9 13 -4 21.5t-21 -3.5l-70 -104h-128
q-6 0 -10.5 -4.5t-4.5 -10.5t4.5 -10.5t10.5 -4.5h108l-28 -41h-80q-6 0 -10.5 -4.5t-4.5 -11t4.5 -11t10.5 -4.5h60l-77 -113q-8 -13 4 -22q4 -2 9 -2q8 0 13 6l88 131h169l88 -131q4 -6 13 -6v0zM468 214q-6 0 -10.5 -4.5t-4.5 -11t4.5 -11t10.5 -4.5h57q6 0 10.5 4.5
t4.5 10.5v125q0 7 -4.5 11.5t-10.5 4.5h-136v0h-60q-7 0 -11.5 -4.5t-4.5 -11t4.5 -11t11.5 -4.5h31l-71 -106q-8 -13 4 -21q4 -3 9 -3q8 0 13 7l83 123h112v-94h-42v0v0zM662 92h-528v0v584v0h602v0v-47q0 -6 4.5 -10.5t11 -4.5t11 4.5t4.5 10.5v47v0h123v0v-185
q-31 -13 -51 -40q-25 -33 -25 -74t25 -74q20 -27 51 -39v-172v0h-47q-7 0 -11.5 -4.5t-4.5 -11t4.5 -11t11.5 -4.5h47q13 0 22 9t9 22v182q0 12 -11 15q-29 9 -47 33.5t-18 55t18 54.5t47 33v0q11 3 11 15v196q0 13 -9 22t-22 9h-756q-13 0 -22 -9t-9 -22v-584q0 -13 9 -22
t22 -9h529v0z" />
    <glyph glyph-name="gengduo" unicode="&#xe82e;" 
d="M128 640h86v-85h-86v85zM341 640h555v-85h-555v85zM128 427h86v-86h-86v86zM341 427h555v-86h-555v86zM128 213h86v-85h-86v85zM341 213h555v-85h-555v85z" />
    <glyph glyph-name="xiaoxi" unicode="&#xe62f;" 
d="M767 86h-510q-53 0 -90.5 37.5t-37.5 90.5v340q0 53 37.5 90.5t90.5 37.5h510q53 0 90.5 -37.5t37.5 -90.5v-340q0 -53 -37.5 -90.5t-90.5 -37.5zM257 639q-35 0 -60 -25t-25 -60v-340q0 -35 25 -60t60 -25h510q35 0 60 25t25 60v340q0 35 -25 60t-60 25h-510zM512 259
q-9 0 -16 7l-325 354q-6 6 -5.5 15t7 15t15.5 5.5t15 -6.5l325 -354q6 -7 5.5 -15.5t-7.5 -14.5q-6 -6 -14 -6zM512 259q-8 0 -14 6q-7 6 -7.5 14.5t5.5 15.5l325 354q6 6 15 6.5t15.5 -5.5t7 -15t-5.5 -15l-325 -354q-7 -7 -16 -7zM187 112q-8 0 -14 6q-7 6 -7.5 15t5.5 15
l230 250q6 7 15 7.5t15.5 -5.5t6.5 -15t-6 -15l-229 -251q-7 -7 -16 -7zM837 112q-9 0 -16 7l-229 251q-6 6 -6 15t6.5 15t15.5 5.5t15 -7.5l230 -250q6 -6 5.5 -15t-7.5 -15q-6 -6 -14 -6z" />
    <glyph glyph-name="cuxiao" unicode="&#xe605;" 
d="M462 -59q-41 0 -69 28l-297 297q-29 29 -29 69.5t29 69.5l26.5 26t64.5 64t84.5 85t88 88t73.5 73t41 42q46 45 124 45h260q40 0 69 -28.5t29 -69.5q0 1 0 -54.5v-118.5v-79q0 -85 -46 -131l-378 -378q-29 -28 -70 -28zM858 780q1 0 -57.5 0h-123.5h-79q-30 0 -50.5 -6.5
t-39.5 -25.5l-378 -378q-15 -14 -15 -34.5t15 -35.5l297 -297q14 -14 35 -14t36 14l378 378q32 32 32 97v79v118.5t0 54.5q0 21 -15 35.5t-35 14.5zM707.5 459q-44.5 0 -76 32t-31.5 76.5t31.5 76t76 31.5t76 -31.5t31.5 -76t-31.5 -76.5t-76 -32zM707.5 627
q-24.5 0 -42 -17.5t-17.5 -42.5t17.5 -42t42 -17t42 17.5t17.5 42t-17.5 42t-42 17.5z" />
    <glyph glyph-name="xiangyou" unicode="&#xe619;" 
d="M715 383l-4 4q-317 308 -465 452q-10 10 -12 18q-6 23 14 34q21 13 38 -4q10 -9 59 -57q311 -302 434 -421q8 -8 11 -17q6 -17 -9 -31q-63 -61 -125 -122l-1 -1l-1 -1l-1 -1l-1 -1l-1 -1l-1 -1l-1 -1l-1 -1l-1 -1l-1 -1l-1 -1h-1l-1 -1l-1 -1l-1 -1l-1 -1l-1 -1l-1 -1
l-1 -1l-1 -1l-1 -1l-1 -1l-1 -1l-1 -1l-1 -1l-1 -1l-1 -1l-1 -1l-1 -1l-1 -1l-1 -1l-1 -1l-1 -1l-1 -1l-1 -1l-1 -1l-1 -1l-1 -1l-1 -1l-1 -1l-1 -1l-1 -1l-1 -1l-1 -1l-1 -1h-1l-1 -1l-1 -1l-1 -1l-1 -1l-1 -1l-1 -1l-1 -1l-1 -1l-1 -1l-1 -1l-1 -1l-1 -1l-1 -1l-1 -1
l-1 -1l-1 -1l-1 -1l-1 -1l-1 -1l-1 -1l-1 -1l-1 -1l-1 -1l-1 -1l-1 -1l-1 -1l-1 -1l-1 -1l-1 -1l-1 -1l-1 -1l-1 -1l-1 -1l-1 -1h-1l-1 -1l-1 -1l-1 -1l-1 -1l-1 -1l-1 -1l-1 -1l-1 -1l-1 -1l-1 -1l-1 -1l-1 -1l-1 -1l-1 -1l-1 -1l-1 -1l-1 -1l-1 -1l-1 -1l-1 -1l-1 -1
l-1 -1l-1 -1l-1 -1l-1 -1l-1 -1l-1 -1l-1 -1l-1 -1l-1 -1l-1 -1l-1 -1l-1 -1l-1 -1h-1l-1 -1l-1 -1l-1 -1l-1 -1l-1 -1l-1 -1l-1 -1l-1 -1l-1 -1l-1 -1l-1 -1l-1 -1l-1 -1l-1 -1l-1 -1l-1 -1l-1 -1l-1 -1l-1 -1l-1 -1l-1 -1l-1 -1l-1 -1l-1 -1l-1 -1l-1 -1l-1 -1l-1 -1
l-1 -1l-1 -1l-1 -1l-1 -1l-1 -1l-1 -1h-1l-1 -1l-1 -1l-1 -1l-1 -1l-1 -1l-1 -1l-1 -1l-1 -1l-1 -1l-1 -1l-1 -1l-1 -1l-1 -1l-1 -1l-1 -1l-1 -1l-1 -1l-1 -1l-1 -1l-1 -1l-1 -1l-1 -1l-1 -1l-1 -1l-1 -1l-1 -1l-1 -1l-1 -1l-1 -1l-1 -1l-2 -1l-1 -1l-1 -1l-1 -1l-1 -1
l-1 -1l-1 -1l-1 -1l-1 -1l-1 -1l-1 -1l-1 -1l-1 -1l-1 -1l-1 -1l-1 -1l-1 -1l-1 -1l-1 -1l-1 -1l-1 -1l-1 -1l-1 -1l-1 -1l-1 -1l-1 -1l-1 -1l-1 -1l-1 -1l-1 -1l-1 -1l-1 -1l-1 -1l-1 -1h-1l-1 -1l-1 -1l-1 -1l-1 -1l-1 -1l-1 -1l-1 -1l-1 -1l-1 -1l-1 -1l-1 -1l-1 -1
l-1 -1l-1 -1l-1 -1l-1 -1l-1 -1l-1 -1l-1 -1l-1 -1l-1 -1l-1 -1l-1 -1l-1 -1l-1 -1l-1 -1l-1 -1l-1 -1l-1 -1l-1 -1l-1 -1l-1 -1l-1 -1l-1 -1h-1l-1 -1l-1 -1l-1 -1l-1 -1l-1 -1l-1 -1l-1 -1l-1 -1l-1 -1l-1 -1l-1 -1l-1 -1l-1 -1l-1 -1l-1 -1l-1 -1l-1 -1l-1 -1l-1 -1
l-1 -1l-1 -1l-1 -1l-1 -1l-1 -1l-1 -1l-1 -1l-1 -1l-1 -1l-1 -1l-1 -1l-1 -1l-1 -1l-1 -1l-1 -1h-1l-1 -1l-1 -1l-1 -1l-1 -1l-1 -1l-1 -1l-1 -1l-1 -1l-1 -1l-1 -1l-1 -1l-1 -1l-1 -1l-1 -1l-1 -1l-1 -1l-1 -1l-1 -1l-1 -1l-1 -1l-1 -1l-1 -1l-1 -1l-1 -1l-1 -1l-1 -1
l-1 -1l-1 -1l-1 -1l-1 -1l-1 -1l-1 -1l-1 -1l-1 -1h-1l-1 -1l-1 -1l-1 -1l-1 -1l-1 -1l-1 -1l-1 -1l-1 -1l-1 -1l-1 -1l-1 -1l-1 -1l-1 -1l-1 -1l-1 -1l-1 -1l-1 -1l-1 -1l-1 -1l-1 -1l-1 -1l-1 -1l-1 -1l-1 -1l-1 -1l-1 -1l-1 -1l-1 -1l-1 -1l-1 -1l-1 -1l-1 -1l-1 -1h-1
l-1 -1l-1 -1l-1 -1l-1 -1l-1 -1l-1 -1l-1 -1l-1 -1l-1 -1l-1 -1l-1 -1q-11 -10 -24 -11t-23 8.5t-10 22.5t10 22q7 7 77 75q272 264 392 380q0 1 4 3z" />
    <glyph glyph-name="hongbao" unicode="&#xe61e;" 
d="M941 19q10 0 21 8.5t11 17.5v742q0 19 -7 32v7v6q-9 29 -35.5 46.5t-60.5 17.5h-716q-12 0 -27.5 -5t-24.5 -14v0v0q-44 -27 -44 -90v-806q0 -43 31.5 -76t70.5 -33h710q39 0 71 33t32 76v89q0 10 -11 18t-21 8t-18 -8t-8 -18v0v0v0v-83q0 -23 -15.5 -40t-35.5 -17h-493
v0h-211q-20 0 -35.5 17t-15.5 40v794q0 19 6 25l397 -243l403 231v-7v-736q0 -32 26 -32v0v0v0zM512 627l-339 211h691h13l-365 -211v0v0v0zM666 224v0q9 0 17 8t8 17.5t-8 17.5t-17 8h-116l116 147v0q19 20 0 39q-5 9 -17 9t-22 -9l-102 -128l-109 147q-13 13 -38 0
q-13 -26 6 -45v0l122 -153v0h-122v0q-10 0 -18 -8t-8 -18t8 -18t18 -8v0h122v-57h-122v0q-10 0 -18 -8t-8 -17.5t8 -17.5t18 -8v0h122v-64v0q0 -10 8 -18t17.5 -8t17.5 8t8 18v0v64h115v0q10 0 18 8t8 17.5t-8 17.5t-18 8h-122v57l116 -6v0v0v0zM666 224z" />
    <glyph glyph-name="huifu1" unicode="&#xe634;" 
d="M807 187v0q-156 -121 -294 -226q-24 -18 -50.5 -23t-44 5t-17.5 32v156q-92 0 -169.5 46.5t-122 127.5t-44.5 176t44.5 175.5t122 127.5t169.5 47h224q91 0 168.5 -47t122.5 -127.5t45 -175.5q0 -91 -41.5 -169t-112.5 -125zM611 775h-196q-122 0 -208 -86t-86 -208
t86 -208t208 -86h42v-143q0 -14 7 -20.5t14 -5.5h7l280 211h-3q65 39 104 106t39 146q0 122 -86 208t-208 86v0v0zM611 775zM288 480zM225 480q0 26 18.5 44.5t44.5 18.5t44.5 -18.5t18.5 -44.5t-18.5 -44.5t-44.5 -18.5t-44.5 18.5t-18.5 44.5zM512 480zM450 480
q0 26 18 44.5t44.5 18.5t44.5 -18.5t18 -44.5t-18 -44.5t-44.5 -18.5t-44.5 18.5t-18 44.5zM739 480zM676 480q0 26 18.5 44.5t44.5 18.5t44.5 -18.5t18.5 -44.5t-18.5 -44.5t-44.5 -18.5t-44.5 18.5t-18.5 44.5z" />
    <glyph glyph-name="iconfontunfold" unicode="&#xe644;" 
d="M942 589.5q-9 9.5 -21.5 10t-21.5 -7.5l-370 -370q-11 -12 -17 -12t-18 12l-370 370q-8 8 -21 7.5t-22 -10t-9.5 -22t8.5 -21.5l411 -411q7 -7 18 -8h5q12 1 19 8l411 411q8 9 7.5 21.5t-9.5 22z" />
    <glyph glyph-name="erweima" unicode="&#xe616;" 
d="M433 848h-338q-18 0 -30 -12.5t-12 -29.5v-339q0 -17 12 -29.5t30 -12.5h338q18 0 30.5 12.5t12.5 29.5v339q0 17 -12.5 29.5t-30.5 12.5zM439 467q0 -5 -6 -5h-338q-6 0 -6 5v339q0 5 6 5h338q6 0 6 -5v-339zM323 722h-118q-11 0 -18.5 -8t-7.5 -19v-117q0 -11 7.5 -19
t18.5 -8h118q11 0 19 8t8 19v117q0 11 -8 19t-19 8zM313 588h-98v97h98v-97zM323 220h-118q-11 0 -18.5 -7.5t-7.5 -18.5v-118q0 -11 7.5 -19t18.5 -8h118q11 0 19 8t8 19v118q0 11 -8 18.5t-19 7.5zM313 86h-98v98h98v-98zM699 551h118q11 0 18.5 8t7.5 19v117
q0 11 -7.5 19t-18.5 8h-118q-11 0 -19 -8t-8 -19v-117q0 -11 8 -19t19 -8zM709 685h98v-97h-98v97zM433 350h-338q-18 0 -30 -12.5t-12 -30.5v-338q0 -18 12 -30t30 -12h338q18 0 30.5 12t12.5 30v338q0 18 -12.5 30.5t-30.5 12.5zM439 -31q0 -6 -6 -6h-338q-6 0 -6 6v338
q0 6 6 6h338q6 0 6 -6v-338zM591 348q-18 0 -30 -12.5t-12 -29.5v-195q0 -7 5 -12.5t13 -5.5t13 5.5t5 12.5v195q0 5 6 5h205q7 0 12.5 5.5t5.5 13t-5.5 13t-12.5 5.5h-205zM589 425h338q18 0 30 12.5t12 29.5v339q0 17 -12 29.5t-30 12.5h-338q-18 0 -30.5 -12.5
t-12.5 -29.5v-339q0 -17 12.5 -29.5t30.5 -12.5zM583 806q0 5 6 5h338q6 0 6 -5v-339q0 -5 -6 -5h-338q-6 0 -6 5v339zM970 330q0 7 -5.5 12.5t-13.5 5.5h-67q-8 0 -13.5 -5.5t-5.5 -13t5.5 -13t13.5 -5.5h49v-71h-153q-8 0 -13.5 -5t-5.5 -13t5.5 -13t13.5 -5h171
q8 0 13.5 5t5.5 13v0v0v108zM630 -37h-45v51q0 8 -5 13.5t-13 5.5t-13 -5.5t-5 -13.5v-70q0 -7 5 -12.5t13 -5.5h63q8 0 13.5 5.5t5.5 13t-5.5 13t-13.5 5.5zM834 105.5q0 7.5 -5.5 13t-12.5 5.5h-117q-7 0 -12.5 -5.5t-5.5 -12.5v-163q0 -8 5.5 -13.5t13 -5.5t13 5.5
t5.5 13.5v144h98q7 0 12.5 5.5t5.5 13zM951 173q-8 0 -13 -5.5t-5 -13.5v-194h-167q-8 0 -13 -5.5t-5 -13t5 -13t13 -5.5h185q8 0 13 5.5t5 12.5v213q0 8 -5 13.5t-13 5.5zM656 272q-8 0 -13 -5t-5 -13v-60q0 -8 5 -13t13 -5t13 5t5 13v60q0 8 -5 13t-13 5z" />
    <glyph glyph-name="gerentouxiang" unicode="&#xe662;" 
d="M765 109q-3 78 -51 139t-121 82q1 0 2.5 1l3 2l1.5 1q11 6 18 12q10 7 17 15q12 12 21 25q4 7 8 16l0.5 1l0.5 1q14 30 14 63q0 63 -44.5 108t-107.5 45v0v0q-63 0 -108 -45t-45 -108q0 -44 24 -81t63 -56q-74 -21 -122 -82t-50 -139v-0.5v-1v-0.5v0q0 -5 2 -8
q6 -12 19 -12t19 12q1 2 1 6l0.5 1t0.5 1.5t-0.5 1.5l-0.5 1v9q0 2 1 5h-1q10 83 77 135l2 1v0h1q38 29 84 37h1.5h0.5l14 2h12h2.5h2.5q9 0 19 -1v1q69 -7 119.5 -56.5t57.5 -118.5v0q1 -3 1 -4.5v-9.5l-0.5 -1t-0.5 -1.5v-1t1 -1.5q0 -4 1 -6q6 -12 19 -12t19 12q1 3 2 8
v0v0.5v1v0.5zM415 467q0 46 32.5 79t79 33t79.5 -33t33 -79t-33 -79t-79.5 -33t-79 33t-32.5 79zM527 762q-111 0 -205.5 -54.5t-149 -149t-54.5 -205.5t54.5 -205.5t149 -149t205.5 -54.5t205.5 54.5t149 149t54.5 205.5t-54.5 205.5t-149 149t-205.5 54.5zM527 -16
q-100 0 -185 49.5t-134.5 134.5t-49.5 185t49.5 185t134.5 134.5t185 49.5t185 -49.5t134 -134.5t49 -185t-49 -185t-134 -134.5t-185 -49.5z" />
    <glyph glyph-name="jifen" unicode="&#xe653;" 
d="M509 395q128 0 232 25.5t163 70t59 99t-59 99t-163 70t-232 25.5t-232 -25.5t-163 -70t-59 -99t59 -99t163 -70t232 -25.5zM509 735q86 0 163.5 -13t129.5 -34t82 -47t30 -51.5t-30 -51.5t-82 -47t-129.5 -34t-163.5 -13t-163 13t-129 34t-82.5 47t-30.5 51.5t30.5 51.5
t82.5 47t129 34t163 13zM509 189q127 0 231 25t163 69.5t59 98.5q0 43 -39 81v0v0l-0.5 0.5l-0.5 0.5v0q-7 6 -15 6q-9 0 -15.5 -6.5t-6.5 -16.5q0 -9 7 -16v0q23 -24 23 -49q0 -26 -30 -52t-82.5 -47t-129.5 -34t-163.5 -13t-164 13t-129.5 34t-82.5 47t-30.5 52
q0 28 24 49v0.5t0.5 0.5h0.5v0v0q6 7 6 15q0 10 -6.5 16.5t-16 6.5t-15.5 -7h-1q-39 -38 -39 -81q0 -54 59 -98.5t163 -69.5t231 -25zM923 258l-0.5 0.5l-0.5 0.5v0q-6 6 -15 6t-15.5 -7t-6.5 -16t7 -16v0q24 -24 24 -49q0 -26 -30.5 -52t-82.5 -47t-129.5 -34t-164 -13
t-164 13t-129.5 34t-82.5 47t-30.5 52q0 28 24 49l0.5 0.5l0.5 0.5v0v0v0q6 7 6 15q0 10 -6.5 16.5t-16 6.5t-15.5 -7v0q-39 -38 -39 -81q0 -54 58.5 -98.5t162.5 -69.5t231.5 -25t231 25t162.5 69.5t59 98.5q0 43 -39 81v0v0z" />
    <glyph glyph-name="12" unicode="&#xe629;" 
d="M237 228.5q0 98.5 69.5 168t167.5 69.5t167.5 -69.5t69.5 -168t-69.5 -168t-167.5 -69.5t-167.5 69.5t-69.5 168zM741 833h-1h-1v0h-0.5h-0.5h-1l-1 -1v0h-1h-0.5h-0.5h-1l-1 -1v0l-230 -76q-12 -4 -17.5 -15.5t-1.5 -23.5q7 -21 29 -21q5 0 10 2l159 53l-118 -237
q-43 14 -89 14q-124 0 -211.5 -87.5t-87.5 -211t88 -211.5q65 -65 155 -82h111q90 17 156 82q87 88 87 211.5t-87 210.5q-30 30 -66 50l117 234l53 -160q7 -21 29 -21q5 0 10 2q12 4 17.5 15t1.5 23l-76 230l-0.5 0.5l-0.5 0.5v0.5v0.5l-1 1v0v0v1l-1 1v0v0.5v0.5v0l-1 1v0
v0.5t-0.5 0.5h-0.5v1h-0.5t-0.5 1v0v0l-1 1v0l-1 1v1h-1l-1 1v0h-1v1h-1v1h-1h-1v0q0 1 -0.5 1h-0.5l-1 1v0v0h-1l-0.5 0.5t-1.5 0.5v0v0h-1l-0.5 0.5l-0.5 0.5v0h-0.5h-1h-0.5h-0.5h-0.5l-0.5 0.5l-0.5 0.5h-0.5h-0.5v0h-1v0h-1h-0.5h-0.5h-1z" />
    <glyph glyph-name="yuyin1" unicode="&#xe7b5;" 
d="M699 403q0 -68 -48.5 -120.5t-117.5 -62.5v-105h60q31 0 31 -15.5t-31 -15.5h-166q-31 0 -31 15.5t31 15.5h60v105q-71 8 -118.5 60.5t-47.5 122.5v31q0 10 7 16.5t16.5 6.5t16.5 -6.5t7 -16.5v-31q0 -56 41.5 -96t100 -40t100 40t41.5 96v31q0 10 7 16.5t17 6.5t17 -6.5
t7 -16.5v-31zM396 572q0 48 33.5 82t80.5 34t80.5 -34t33.5 -82v-160q0 -48 -33.5 -82t-80.5 -34t-80.5 34t-33.5 82v160zM512 891q-103 0 -196.5 -40t-161.5 -107.5t-108 -161t-40 -196t40 -196t108 -161t161.5 -107.5t196.5 -40t196.5 40t161.5 107.5t108 161t40 196
t-40 196t-108 161t-161.5 107.5t-196.5 40v0z" />
    <glyph glyph-name="suo" unicode="&#xe692;" 
d="M858 492q-21 22 -51 22l-524 1q7 138 68 205q35 39 72 53.5t99 14.5q176 0 244 -174q3 -10 12.5 -14t19.5 -0.5t14 13t0 19.5q-39 101 -113 153.5t-177 52.5q-73 0 -119.5 -19t-88.5 -65q-74 -81 -81 -239h-14q-31 0 -53 -22t-22 -51v-400q0 -30 21.5 -51t51.5 -21h590
q30 0 51 21t21 51v400q1 29 -21 50zM830 42q0 -9 -7 -15.5t-16 -6.5h-590q-9 0 -16 6.5t-7 15.5v400q0 9 7.5 16t17.5 7l588 -1q9 0 16 -7q7 -6 6 -15zM512 347q-10 0 -17.5 -7t-7.5 -18v-160q0 -10 7.5 -17.5t17.5 -7.5t17.5 7.5t7.5 17.5v160q0 11 -7.5 18t-17.5 7z" />
    <glyph glyph-name="shengji" unicode="&#xe615;" 
d="M513 -66q-91 0 -174 35q-80 34 -141.5 95.5t-95.5 141.5q-35 83 -35 173.5t35 173.5q34 80 95.5 142t141.5 96q83 35 174 35t174 -35q80 -34 141.5 -96t95.5 -142q35 -83 35 -173.5t-35 -173.5q-34 -80 -95.5 -141.5t-141.5 -95.5q-83 -35 -174 -35zM513 775
q-107 0 -198 -53t-144 -144t-53 -198t53 -198.5t144 -144t198 -52.5t198 52.5t144 144t53 198.5t-53 198t-144 144t-198 53zM693 415q-8 -8 -19 -8t-19 8l-115 115v-365q0 -11 -8 -19t-19 -8t-19 8t-8 19v365l-115 -115q-8 -8 -19 -8t-19 7.5t-8 19t8 18.5l161 162q8 8 19 8
t19 -8l161 -162q8 -7 8 -18.5t-8 -18.5v0z" />
    <glyph glyph-name="haibao" unicode="&#xe61b;" horiz-adv-x="1078" 
d="M694 678h-339q-16 0 -27.5 -12t-11.5 -29v-299q0 -17 11.5 -29t27.5 -12h339q16 0 27.5 12t11.5 29v299q0 17 -11.5 29t-27.5 12v0v0v0zM355 651h339q5 0 9 -4t4 -10v-160q-49 42 -101 42q-19 0 -41.5 -10.5t-37 -21.5t-40.5 -32q-59 -49 -81 -49q-33 0 -64 32v199
q0 6 4 10t9 4v0v0v0zM694 324h-339q-5 0 -9 4t-4 10v65q32 -24 64 -24q14 0 32 9t30.5 18t35.5 28t36 28.5t32 19.5t34 10q25 0 51 -14.5t35.5 -23t14.5 -14.5v0v-102q0 -6 -4 -10t-9 -4v0v0v0zM446 487q22 0 37 16t15 38.5t-15 38.5t-37 16t-37 -16t-15 -38.5t15 -38.5
t37 -16v0v0v0zM446 569q11 0 18.5 -8t7.5 -19t-7.5 -19t-18 -8t-18.5 8t-8 19t8 19t18 8v0v0v0zM687 206h-334q-8 0 -14.5 6t-6.5 12.5t6.5 12.5t14.5 6h334q8 0 14 -6t6 -12.5t-6 -12.5t-14 -6v0zM687 118h-334q-9 0 -15 6t-6 13t6 13t15 6h334q8 0 14 -6t6 -13t-6 -13
t-14 -6v0zM754 17h-459q-52 0 -88.5 37t-36.5 88v522q0 52 36.5 88.5t88.5 36.5h459q52 0 88.5 -36.5t36.5 -88.5v-522q0 -51 -36.5 -88t-88.5 -37v0zM291 754q-36 0 -60.5 -25t-24.5 -60v-532q0 -35 24.5 -60t60.5 -25h467q36 0 60.5 25t24.5 60v532q0 35 -24.5 60
t-60.5 25h-467v0z" />
    <glyph glyph-name="shipin" unicode="&#xe6d1;" horiz-adv-x="1036" 
d="M1002 647q-34 21 -78 0l-207 -100v42q0 46 -32.5 78.5t-78.5 32.5h-483q-46 0 -78.5 -28t-32.5 -68v-434q0 -47 19 -79t48 -32h44v45h-44q-3 0 -8 6.5t-10 23t-5 36.5v434q0 21 20 36t47 15h483q27 0 47 -19.5t20 -46.5v-419q0 -27 -20 -46.5t-47 -19.5h-343v-45h343
q46 0 78.5 32.5t32.5 78.5v41l207 -100q21 -11 41 -11q21 0 37 10q34 22 34 71v396q0 49 -34 70zM991 181q0 -25 -13 -33t-35 3l-226 110v237l226 109q22 11 35 2.5t13 -32.5v-396zM173 539zM140 538.5q0 13.5 9.5 23t23 9.5t23 -9.5t9.5 -23t-9.5 -22.5t-23 -9t-23 9
t-9.5 22.5zM817 263z" />
    <glyph glyph-name="40kanjia" unicode="&#xe700;" 
d="M213 237l-138 138q-22 22 -22 54v259q0 21 15 36t36 15h259q32 0 54 -22l139 -138l-37 -36l-138 138q-7 7 -18 7h-259v-259q0 -11 7 -18l138 -138zM639.5 -5q-31.5 0 -54.5 23l-193 193l36 36l194 -193q7 -8 17.5 -8t18.5 8l234 234q7 7 7 17.5t-7 18.5l-194 193l36 36
l194 -193q22 -23 22 -54.5t-22 -53.5l-234 -234q-23 -23 -54.5 -23zM78 -51l-51 51l921 867v0zM231 561zM180 561q0 21 15 36t36.5 15t36 -15t14.5 -36t-14.5 -36t-36 -15t-36.5 15t-15 36z" />
    <glyph glyph-name="cust" unicode="&#xe601;" 
d="M390 313q-23 0 -39 -16t-16 -38.5t16 -38.5t39 -16q17 0 30.5 9.5t19.5 25.5l-40 20l40 19q-6 16 -19.5 25.5t-30.5 9.5v0zM643 204q17 0 31 9.5t20 25.5l-40 19l40 20q-6 16 -20 25.5t-31 9.5q-22 0 -38 -16t-16 -38.5t16 -38.5t38 -16v0zM889 332q1 13 0 26
q4 180 -101 287q-49 51 -119 77q-5 48 -51 81t-109 33t-109 -33t-51 -81q-69 -26 -119 -77q-105 -107 -101 -287v-31q-34 -35 -22 -83q12 -44 55 -59q20 -13 44 -13q25 -108 108 -174t199 -66q115 0 198 66t108 174h3q30 0 54 19q31 18 41 53q14 52 -28 88zM509.5 807
q46.5 0 82.5 -21t46 -53q-59 16 -128 16h-2q-68 0 -127 -16q10 32 46 53t82.5 21zM513 -39h-1q-126 0 -206 82t-80 211v16q0 9 2 46q26 9 49 26t36.5 32.5t25.5 33.5t15.5 25.5t5.5 12.5q5 14 -8.5 19t-18.5 -8l-5 -10t-13.5 -22.5t-23 -30.5t-33 -29t-43.5 -23l-2 2
t-4.5 3.5t-6.5 4t-7.5 3t-9 1.5t-10.5 -1v3q-3 162 88 255q89 90 245 90h1v-17h2l-1 17q157 0 245 -90q92 -93 88 -255v-3q-13 0 -22 -7t-11.5 -13t-1.5 -8q-1 -1 -1 -2q-1 -5 -2 -29q-1 -1 -2 -1q-20 20 -49.5 34t-50 19.5t-58.5 13.5q-59 13 -87.5 24t-55.5 28.5t-44 33.5
t-32.5 34t-20 24.5t-6.5 10.5q-8 13 -20.5 5.5t-4.5 -20.5q3 -5 8 -12.5t21.5 -27t35 -36.5t48 -36.5t60.5 -30.5q30 -12 92 -25q41 -9 62 -14.5t49.5 -21.5t46.5 -40l2 -2v-2q0 -29 -5 -55q-38 -61 -99.5 -99t-138.5 -46q-13 17 -42 17q-19 0 -33 -9t-14 -22t14 -22.5
t33 -9.5q18 0 31 7.5t16 18.5q50 6 95 24q64 26 112 75l14 16q-28 -87 -99.5 -137.5t-169.5 -50.5v0z" />
    <glyph glyph-name="zhuanjiarenzheng" unicode="&#xe624;" horiz-adv-x="1041" 
d="M934 161l-130 -131q-6 -6 -14 -6v0q-8 0 -14 6l-74 76q-9 9 -8 19t11 18q9 7 18 7q11 0 20 -10l47 -48l100 103q7 8 18 8q10 0 19 -7q11 -9 11 -20q1 -9 -4 -15v0zM417 62l-42 46l42 207l41 -207l-41 -46v0zM822 -80q-45 0 -86 19.5t-70 56.5h-667v66q0 62 60 102
q31 20 109 48q68 24 98 43t30 47v15v0v12q-40 49 -56 105q-21 16 -33 47q-21 59 6 105q-12 125 47 192q61 68 152 70h1h1q92 -2 152 -70q37 -42 47 -107q5 -37 0 -85q27 -46 6 -105q-12 -30 -33 -47q-16 -56 -56 -105v-28q0 -15 37 -46q20 -16 44 -31l27 -10q24 52 70 85
q51 37 114 37q84 0 143 -61t59 -147t-59 -147t-143 -61v0zM622 159l-35 14l-1 1q-44 26 -55 35q-59 49 -59 92q0 4 1 35v16l7 8q40 46 53 100l3 14l13 6q10 5 16 22q5 13 4.5 30t-8.5 27l-9 12l3 13q12 106 -31 154q-44 49 -111 51q-67 -2 -111 -51q-42 -48 -31 -155v-1
l2 -13l-8 -10q-8 -10 -8.5 -27t4.5 -30q7 -17 16 -22l13 -6l3 -14q13 -55 53 -100l7 -8v-11v-24v-2v-13q0 -60 -59 -98q-30 -20 -107 -48q-69 -24 -99.5 -43.5t-30.5 -50.5v-7h576q-13 35 -13 73q0 15 2 31v0zM822 277q-60 0 -102.5 -44t-42.5 -105.5t42.5 -105t102.5 -43.5
t102.5 43.5t42.5 105t-42.5 105.5t-102.5 44v0z" />
    <glyph glyph-name="zhangdan" unicode="&#xe64b;" 
d="M729 20v0h-563q-32 0 -55 22.5t-23 55.5v697q0 32 23 55t55 23h563q32 0 55 -23t23 -55v-697q0 -33 -23 -55.5t-55 -22.5zM166 828q-14 0 -23.5 -9.5t-9.5 -23.5v-697q0 -14 9.5 -23.5t23.5 -9.5h563v0q14 0 23.5 9.5t9.5 23.5v697q0 14 -9.5 23.5t-23.5 9.5h-563z
M707 781zM832 -105h-470q-9 0 -15.5 6.5t-6.5 15.5t6.5 16t15.5 7h470q24 0 41.5 17.5t17.5 41.5v629q0 9 6.5 16t16 7t16 -7t6.5 -16v-629q0 -43 -30.5 -73.5t-73.5 -30.5zM574 632h-343q-9 0 -16 6.5t-7 16t7 16t16 6.5h343q9 0 15.5 -6.5t6.5 -16t-6.5 -16t-15.5 -6.5z
M664 424h-433q-9 0 -16 6.5t-7 16t7 16t16 6.5h433q9 0 15.5 -6.5t6.5 -16t-6.5 -16t-15.5 -6.5zM664 217h-433q-9 0 -16 6.5t-7 16t7 16t16 6.5h433q9 0 15.5 -6.5t6.5 -16t-6.5 -16t-15.5 -6.5z" />
    <glyph glyph-name="xiaolian" unicode="&#xe70e;" 
d="M512 -72q-93 0 -177.5 36t-145.5 97t-97 145.5t-36 177.5t36 177.5t97 145.5t145.5 97t177.5 36t177.5 -36t145.5 -97t97 -145.5t36 -177.5t-36 -177.5t-97 -145.5t-145.5 -97t-177.5 -36zM512 792q-111 0 -205 -54.5t-148.5 -148.5t-54.5 -205t54.5 -205t148.5 -148.5
t205 -54.5t205 54.5t148.5 148.5t54.5 205t-54.5 205t-148.5 148.5t-205 54.5zM512 115q-67 0 -128 28t-104 79q-7 8 -6 18t8.5 16.5t17.5 5.5t16 -8q37 -44 88 -67.5t108 -23.5t108 23.5t88 67.5q7 7 16.5 8t17 -5.5t8.5 -16.5t-5 -18q-44 -51 -105 -79t-128 -28zM368 391
h-6q-16 0 -27 11.5t-11 27.5v69q0 16 11 27t27 11h6q16 0 27.5 -11t11.5 -27v-69q0 -16 -11.5 -27.5t-27.5 -11.5zM662 391h-6q-16 0 -27.5 11.5t-11.5 27.5v69q0 16 11.5 27t27.5 11h6q16 0 27 -11t11 -27v-69q0 -16 -11 -27.5t-27 -11.5z" />
    <glyph glyph-name="xiugai" unicode="&#xe603;" 
d="M972 709q-14 -50 -32 -64q-69 -56 -140 -127.5t-152.5 -160t-131.5 -137.5l-11 -11q-17 -27 -39.5 -47t-51 -34t-52.5 -22.5t-59 -19.5t-56 -19q-14 -5 -31.5 14t-12.5 35q38 135 51 177q3 9 20 26q47 45 128.5 123t149.5 143t127 123q14 14 28.5 29.5t34 39t26.5 31.5
q30 35 68 37t70 -30q4 -4 15.5 -14.5t17 -16t13 -15.5t12 -20t5.5 -22q1 -3 2 -8.5t1 -6.5q1 -1 0 -1.5t0 -1.5v0zM726 666q-62 -63 -192.5 -193t-196.5 -197q10 -10 33 -33.5t35 -34.5q270 265 393 385q-12 13 -36.5 37.5l-35.5 35.5v0zM757 722q18 -17 49 -47t46 -44
q18 25 19 27q18 18 24.5 25t12.5 18t6 14.5t-6.5 15t-13.5 18t-26 23.5q0 1 -1.5 2t-1.5 2q-25 22 -50 0l-58 -54v0zM273 138q23 9 74 30q-6 7 -46 55q-4 -11 -13 -39t-15 -46v0zM462 -77h-261q-79 0 -122 52q-27 32 -27 86v519q1 70 41 109.5t110 39.5q31 1 141.5 0.5
t141.5 -0.5q12 0 19.5 -1t14.5 -7.5t8 -18.5q3 -29 -44 -29h-137h-137q-49 0 -76 -27t-27 -76v-501q0 -39 24.5 -64t62.5 -25q229 -1 536 0q31 0 50 21t20 55v191.5v151.5q0 22 2 25q18 25 29 23q3 0 5.5 -2t5 -5.5t4.5 -6t5 -7.5t5 -7v-15v-340q0 -72 -34.5 -106.5
t-106.5 -34.5h-253v0zM462 -77z" />
    <glyph glyph-name="left-arrow-circle" unicode="&#xe61a;" 
d="M512 -66q-91 0 -174.5 35.5t-144 96t-96 144t-35.5 174.5t35.5 174.5t96 144t144 96t174.5 35.5t174.5 -35.5t144 -96t96 -144t35.5 -174.5t-35.5 -174.5t-96 -144t-144 -96t-174.5 -35.5zM512 782q-108 0 -200 -53t-145 -145t-53 -200t53 -200t145 -145t200 -53t200 53
t145 145t53 200t-53 200t-145 145t-200 53zM719 358h-414q-11 0 -18.5 7.5t-7.5 18.5t7.5 18.5t18.5 7.5h414q11 0 18.5 -7.5t7.5 -18.5t-7.5 -18.5t-18.5 -7.5zM414 203q-13 0 -21 11l-109 155q-7 9 -5 19.5t11 16.5t19.5 4.5t16.5 -10.5l109 -155q7 -9 5 -19.5t-11 -16.5
q-6 -5 -15 -5zM305 358q-9 0 -15 5q-9 6 -11 16.5t5 19.5l109 155q7 9 17.5 10.5t19 -4.5t10.5 -16.5t-5 -19.5l-109 -155q-8 -11 -21 -11z" />
    <glyph glyph-name="yuyinic" unicode="&#xe648;" 
d="M870 384q0 11 -7.5 18.5t-18 7.5t-18 -7.5t-7.5 -18.5q0 -127 -90 -217t-217 -90t-217 90t-90 217q0 11 -7.5 18.5t-18 7.5t-18 -7.5t-7.5 -18.5q0 -141 96.5 -244.5t235.5 -112.5v-1v0v-128q0 -11 7.5 -18.5t18.5 -7.5t18.5 7.5t7.5 18.5v128v0v1q139 9 235.5 112.5
t96.5 244.5zM512 154q95 0 162.5 67.5t67.5 162.5v282q0 95 -67.5 162.5t-162.5 67.5t-162.5 -67.5t-67.5 -162.5v-282q0 -95 67.5 -162.5t162.5 -67.5zM333 666q0 74 52.5 126.5t126.5 52.5t126.5 -52.5t52.5 -126.5v-282q0 -74 -52.5 -126.5t-126.5 -52.5t-126.5 52.5
t-52.5 126.5v282z" />
    <glyph glyph-name="jiesuan" unicode="&#xe682;" 
d="M260 307h546v-50h-546v50zM259 115h546l1 -54h-546zM554 504h252v-51h-252v51zM608 700h198v-52h-198v52zM852 -96h-663q-33 0 -56 24.5t-23 58.5v794q0 34 23 58.5t56 24.5h663q33 0 56 -24.5t23 -58.5v-794q0 -34 -23 -58.5t-56 -24.5v0v0v0zM179 814q-7 0 -11.5 -6
t-4.5 -15v-818q0 -9 4.5 -15t11.5 -6h683q7 0 12 6t5 15v818q0 9 -5 15t-12 6h-683zM473 556q11 -19 11 -43q0 -38 -23 -63q-22 -25 -65 -30v-43h-36v43q-70 7 -87 82l56 15q7 -47 51 -47q20 0 30 10t10 24q0 15 -10 23q-9 7 -43 19q-30 10 -46 20q-17 10 -27.5 28.5
t-10.5 42.5q0 31 19 56.5t58 31.5v33h37v-33q60 -7 78 -69l-50 -20q-14 42 -45 42q-15 0 -24 -9q-10 -10 -10 -23q0 -14 9 -21t39 -18q31 -12 50 -22q18 -11 29 -29v0v0v0z" />
    <glyph glyph-name="article" unicode="&#xe606;" 
d="M855 896h-707q-28 0 -48.5 -10t-29.5 -24.5t-14.5 -28.5t-6.5 -24v-11v-828q0 -4 0.5 -11t6 -23.5t15 -29.5t30 -23.5t48.5 -10.5h585l217 171v755q0 4 -1 11t-6 23.5t-14 29.5t-29 23.5t-46 10.5zM902 67l-195 -146h-536q-21 0 -36 8t-22 17.5t-11 22t-4 17.5v8v0v780v8
t4 17.5t11 22t22 17.5t36 8h658q20 0 35.5 -7.5t22 -18t10.5 -21.5t5 -18v-8v-707zM219 360h561v-49h-561v49zM219 555h561v-49h-561v49zM219 750h269v-49h-269v49zM853 189h-219v-219h49v170h170v49z" />
    <glyph glyph-name="jifenxiaofei" unicode="&#xe628;" 
d="M632.5 809q-58.5 0 -114.5 -7t-104 -20t-77.5 -35t-29.5 -49v-204l34 3q14 0 21 -1v17q32 -23 108 -40t162.5 -17t162.5 17t108 40v-78q0 -11 -23.5 -24t-87.5 -25t-154 -14h-12q-21 0 -56 2q16 -28 22 -43q7 0 20.5 -1t20.5 -1q86 0 162 17t108 40v-78q0 -11 -23.5 -24
t-87.5 -25.5t-154 -13.5h-12h-19v-3l-10 -40q6 0 17.5 -0.5t18.5 -0.5q86 0 162 17t108 39v-77q0 -12 -23.5 -25t-87.5 -25t-154 -14h-12q-9 0 -25 0.5t-24 0.5l-14 -57q202 -1 298.5 33t96.5 94v511q0 27 -29.5 49t-77.5 35t-104 20t-114.5 7zM629 766q86 0 154 -13t98 -28
t30 -26t-30 -26t-98 -27.5t-154 -12.5t-154.5 12.5t-98.5 27.5t-30 26t30 25.5t98.5 28t154.5 13.5zM911 562q0 -11 -25 -24t-91.5 -25t-160.5 -14h-12q-94 2 -160.5 14t-91 25t-24.5 24v78q34 -23 113 -40t169.5 -17t169.5 17t113 40v-78zM311 160h-69q-4 0 -6 1.5t-2 3.5
l-1 2v28q0 7 9 7h55h14q7 0 7 9v11q0 4 -2.5 6t-4.5 2h-69q-4 0 -6 2t-2 4l-1 1v29q0 7 9 7h55q7 0 4 5q0 1 -14 17.5t-30 36t-21 24.5q-2 3 -2 5.5t1 3.5l1 1l26 20q5 3 11 -5q1 -1 30 -34.5t31 -35.5q10 -10 12 -10q8 0 14 10q2 2 32 36.5t31 36.5q2 2 8 2l26 -21l1 -8
l-66 -79q-3 -5 4 -5h55q4 0 6 -3t2 -6v-25q0 -9 -8 -9h-68q-4 0 -6 -1.5t-2 -3.5v-2v-12q0 -9 8 -9h66q10 0 10 -8v-24q0 -10 -10 -10h-67q-5 0 -6 -1.5t-1 -7.5v-38v-2.5t-2.5 -4.5t-7.5 -3h-37q-10 0 -10 10v40q0 3 -1.5 4.5t-3.5 2.5h-2zM346.5 527q-116.5 0 -199.5 -83
t-83 -199.5t83 -199.5t199.5 -83t199.5 83t83 199.5t-83 199.5t-199.5 83zM346.5 4q-99.5 0 -170 70.5t-70.5 170t70.5 170t170 70.5t169.5 -70.5t70 -170t-70 -170t-169.5 -70.5z" />
    <glyph glyph-name="yue" unicode="&#xe607;" 
d="M143 644h423q24 0 40.5 17t16.5 40v44q0 24 -16.5 40.5t-40.5 16.5h-423q-24 0 -40.5 -16.5t-16.5 -40.5v-44q0 -23 16.5 -40t40.5 -17v0zM494 439q29 34 66 58v43q0 23 -16.5 40t-40.5 17h-424q-23 0 -40 -17t-17 -40v-44q0 -24 17 -40.5t40 -16.5h415v0v0zM86 334v-44
q0 -24 16.5 -40.5t40.5 -16.5h275q0 42 9.5 78t32.5 80h-317q-24 0 -40.5 -16.5t-16.5 -40.5v0zM111 186q-24 0 -40.5 -17t-16.5 -41v-43q0 -24 16.5 -41t40.5 -17h383q-59 69 -73 159h-310v0zM734 502q-111 0 -190 -79t-79 -190t79 -190t190.5 -79t190 79t78.5 190
t-78.5 190t-190.5 79v0zM596 709q0 -16 -12.5 -28t-29.5 -12h-400q-17 0 -29 12t-12 28v29q0 16 12 28t29 12h400q17 0 29.5 -12t12.5 -28v-29zM525 504q0 -17 -11.5 -28.5t-28.5 -11.5h-392q-17 0 -29 11.5t-12 28.5v27q0 17 12 28.5t29 11.5h392q17 0 28.5 -11.5
t11.5 -28.5v-27v0zM424 307q-11 -47 -30 -47h-256q-11 0 -18.5 11.5t-7.5 27.5v27q0 15 7.5 26.5t18.5 11.5h308q-6 -11 -16 -35zM443 96q6 -11 15 -24t10 -15h-357q-13 0 -21.5 10.5t-8.5 26.5v25q0 15 8.5 26t21.5 11h287q20 0 37 -42zM972 231q0 -99 -70 -169t-169 -70
t-169 70t-70 169t70 168.5t169 69.5t169 -69.5t70 -168.5zM628 344q-7 7 -7 16.5t7.5 16t17.5 6.5t17 -7l70 -66l69 66q7 7 17.5 7t17.5 -6.5t7.5 -16t-7.5 -16.5l-76 -73v-23h76q9 0 15 -5.5t6 -14t-6 -14.5t-15 -6h-76v-28h76v0q9 0 15 -6t6 -14t-6 -14t-15 -6h-76v-43
q0 -11 -8.5 -19t-20 -8t-20 8t-8.5 19v43h-75q-9 0 -15.5 6t-6.5 14t6.5 14t15.5 6h75v28h-75q-9 0 -15.5 6t-6.5 14.5t6.5 14t15.5 5.5h75v23z" />
    <glyph glyph-name="qiandao" unicode="&#xe66a;" 
d="M894 836h-121v40q0 8 -5.5 14t-14.5 6h-8q-8 0 -14 -6t-6 -14v-40h-424v40q0 9 -5 14.5t-12 5.5h-13q-8 0 -14 -6t-6 -14v-40h-141q-44 0 -72 -29.5t-28 -70.5v-767q0 -48 26.5 -72.5t73.5 -24.5h804q44 0 72 28t28 69v766q0 40 -37 70.5t-83 30.5zM964 575v-583
q2 -31 -17.5 -50t-43.5 -20h-782q-26 0 -43 18.5t-18 51.5v593h904v-10zM964 635h-904v100q0 17 17 34t33 17h141v-51q0 -8 5.5 -14t14.5 -6h14q15 0 15 20v51h424v-51q0 -8 7.5 -14t16.5 -6h5q8 0 14 6t6 14v51h140q17 0 34 -17t17 -34v-100v0zM437 107q10 -11 23.5 -11
t22.5 11l237 263q27 29 12 46q-17 18 -38 -5l-234 -260l-135 150q-8 4 -13.5 3.5t-9.5 -2.5l-4 -2q-18 -20 5 -45z" />
    <glyph glyph-name="iconfonticonfontwechaticon111" unicode="&#xe60e;" 
d="M512 875q-101 0 -193.5 -39t-159 -106t-106 -159t-39.5 -193.5t39.5 -194t106 -159t159 -106t193.5 -39.5t193.5 39.5t159 106t106 159t39.5 194t-39.5 193.5t-106 159t-159 106t-193.5 39v0zM512 -85q-94 0 -179 36.5t-147 98.5t-98.5 147t-36.5 179t36.5 179t98.5 147
t147 98.5t179 36.5t179 -36.5t147 -98.5t98.5 -147t36.5 -179t-36.5 -179t-98.5 -147t-147 -98.5t-179 -36.5v0zM512 -85zM541 81q-2 -18 -16 -24.5t-28 0.5t-14 24q-1 26 -1 406l-179 -173q-14 -12 -28.5 -6.5t-18 19t5.5 27.5q109 105 226 218q10 11 23.5 11t24.5 -11
q224 -216 227 -220q15 -18 -2.5 -36.5t-37.5 -3.5l-182 175v0v-406zM261 701h499v-57h-499v57v0zM261 701z" />
    <glyph glyph-name="jiahaoyou" unicode="&#xe688;" 
d="M115 -63q-11 0 -19 8t-8 19q0 133 79 238q38 50 89 86q46 32 98 50q-58 32 -94 88q-42 65 -42 143q0 109 78 186.5t187 77.5t186.5 -77.5t77.5 -186.5q0 -78 -41 -143q-36 -56 -94 -88q46 -16 88 -43l7 -6q10 -6 12 -17.5t-5 -20.5q-8 -12 -23 -12v0q-8 0 -16 5l-6 4
q-85 56 -186 56q-92 0 -170.5 -45.5t-124 -123.5t-45.5 -171q0 -11 -8 -19t-20 -8v0zM483 778q-87 0 -148 -61.5t-61 -148t61 -148t147.5 -61.5t148 61.5t61.5 148t-61.5 148t-147.5 61.5v0zM928 110h-108v107q0 9 -10 9h-31q-10 0 -10 -9v-107h-114q-10 0 -10 -10v-33
q0 -9 10 -9h114v-108q0 -9 10 -9h31q10 0 10 9v108h108q10 0 10 9v33q0 10 -10 10v0v0zM928 110z" />
    <glyph glyph-name="faxian" unicode="&#xe633;" 
d="M516.5 -100q-99.5 0 -190.5 38q-88 37 -156 105t-105 156q-38 91 -38 190.5t38 190.5q37 88 105 155.5t156 105.5q91 38 190.5 38t190.5 -38q88 -38 156 -105.5t105 -155.5q38 -91 38 -190.5t-38 -190.5q-37 -88 -105 -156t-156 -105q-91 -38 -190.5 -38zM516.5 838
q-91.5 0 -174.5 -35.5t-143 -95.5t-95.5 -143t-35.5 -174.5t35.5 -174.5t95.5 -143t143 -96t174.5 -36t174.5 36t143 96t95.5 143t35.5 174.5t-35.5 174.5t-95.5 143t-143 95.5t-174.5 35.5zM249 115l165 361l371 192l-170 -396zM445 447l-115 -253l254 109l118 276z
M553 386.5q0 -14.5 -10 -24.5t-24 -10t-24 10t-10 24.5t10 24t24 9.5t24 -9.5t10 -24z" />
    <glyph glyph-name="xiangshang" unicode="&#xe6a9;" 
d="M963 148q-10 -9 -23 -9.5t-22 7.5l-388 385q-11 13 -17 13t-19 -13l-388 -385q-9 -8 -22 -7.5t-23 9.5q-10 10 -10.5 23.5t8.5 22.5l430 428q7 6 20 8h5q11 0 20 -8l430 -428q9 -9 8.5 -22.5t-9.5 -23.5v0zM963 148z" />
    <glyph glyph-name="qian" unicode="&#xe617;" 
d="M787 485q-13 16 -39 45q-23 26 -34.5 39.5t-23 33t-13.5 33.5q4 8 29 41q19 23 28 35.5t19.5 32.5t9 35.5t-14.5 28.5q-67 67 -222 67q-154 0 -223 -67q-12 -12 -14 -27.5t8.5 -35.5t20 -33t27.5 -36q26 -32 29 -40q-2 -13 -14 -31.5t-23 -30.5t-33 -35q-35 -36 -51 -55
q-123 -151 -120 -295q1 -54 15.5 -98t37.5 -74t55.5 -53t66 -36t72 -21.5t70.5 -11.5t66 -3q382 0 388 298q3 146 -117 294zM516 -56q-328 0 -333 247q-3 125 109 263q14 17 48 51q27 28 41 43.5t28 40t15 47.5q1 13 -7.5 28t-32.5 44q-42 53 -44 67q54 51 186 51
q131 0 185 -51q-2 -14 -44 -67q-23 -29 -32 -44t-8 -28q1 -23 15 -49t27.5 -43t41.5 -47q25 -29 37 -43q109 -134 106 -262q0 -15 -0.5 -25t-4 -31t-9.5 -36t-18 -36.5t-28.5 -37t-42.5 -32t-58 -27t-77.5 -17t-99.5 -6.5v0zM540 305q-10 6 -14 9q-37 26 -40 47q-2 10 6 20
q10 14 30 15q14 1 27.5 -3.5t18.5 -10.5q7 -7 17.5 -7.5t18 6.5t8 17.5t-6.5 17.5q-22 24 -64 30v14q0 10 -7.5 17.5t-18 7.5t-17.5 -7.5t-7 -17.5v-20q-25 -9 -40 -30q-20 -27 -15 -57q7 -42 61 -80q5 -3 16 -10q37 -24 48 -39t2 -31q-9 -18 -32 -21q-31 -5 -57 21
q-7 7 -17.5 7t-18 -7t-7.5 -17.5t8 -17.5q22 -23 52 -32v-42q0 -11 7 -18t17.5 -7t18 7t7.5 18v39q46 8 66 47q9 16 10.5 32t-4.5 29.5t-13 23.5t-20 21t-20.5 16z" />
    <glyph glyph-name="chakantiezigengduozhiguanzhulouzhu" unicode="&#xe66d;" horiz-adv-x="1025" 
d="M1024 50q-42 -80 -122 -129t-175.5 -49t-175.5 49t-122 129q30 58 80.5 100t113.5 62q-62 31 -130 38q-17 -1 -27 -1q-17 0 -37 2q-135 -8 -234 -100t-119 -225l-3 -20q-3 -15 -12.5 -24.5t-24 -9.5t-25 10t-10.5 24v3l3 17q19 126 100.5 224t201.5 141
q-76 42 -121.5 117t-45.5 164q0 88 43.5 162.5t119 117.5t164.5 43t164.5 -43t119.5 -117.5t44 -162.5q0 -89 -45.5 -164t-121.5 -117q62 -23 118 -63q90 -5 164.5 -53t114.5 -125zM715 574.5q0 103.5 -73 176.5t-177 73t-177 -73t-73 -176.5t73 -177t177 -73.5t177 73.5
t73 177zM715 158q-30 0 -63 -10t-50 -20l-17 -10q-63 -42 -84 -70q32 -43 84 -70q65 -35 142 -35v0q-45 0 -76 31.5t-31 75.5t30 75t73 32q-1 0 -3.5 0.5t-4.5 0.5zM691 50.5q0 -14.5 10.5 -25t25 -10.5t25 10.5t10.5 25t-10.5 25t-25 10.5t-25 -10.5t-10.5 -25zM834 50
q0 -44 -31 -75t-76 -32q77 1 142 35q51 27 84 70q-10 13 -31 30.5t-37 28.5l-16 11q-5 4 -15 9.5t-44 16t-73 12.5q41 -4 69 -34t28 -72z" />
    <glyph glyph-name="dunpai" unicode="&#xe62a;" 
d="M868 699q-183 8 -346 123l-9 6l-9 -6q-162 -115 -346 -123h-19v-297q0 -165 103.5 -295t266.5 -168l5 -1l4 1q162 38 265.5 168t103.5 295v297h-19zM513 773q140 -96 324 -111v-285q-5 -66 -26.5 -123t-48.5 -95.5t-63.5 -70t-65.5 -49t-60.5 -31t-43 -16.5t-18.5 -5v1
q-6 1 -17 4t-42 16.5t-59.5 30.5t-65 49t-63.5 70.5t-48.5 96t-26.5 123.5v284q4 1 5 1q181 15 319 110zM296 397l152 -156v0q9 -18 29 -18t29 18v0l228 241q14 8 14 25q0 11 -8 19.5t-20 8.5q-18 0 -26 -17l-217 -231v0h-2l-141 148q-8 15 -25 15q-11 0 -19.5 -8t-8.5 -20
q0 -17 15 -25z" />
    <glyph glyph-name="jujue" unicode="&#xe630;" 
d="M510.5 896q-103.5 0 -198 -40.5t-163 -109t-109 -163t-40.5 -198t40.5 -198t109 -163t163 -109t198 -40.5t198 40.5t163 109t109 163t40.5 198t-40.5 198t-109 163t-163 109t-198 40.5zM511 845q170 0 299 -111l-648 -648q-111 129 -111 299q0 94 36.5 179t98 146.5
t146.5 98t179 36.5zM511 -74q-90 0 -170.5 32.5t-142.5 90.5l649 649q58 -62 90.5 -142.5t32.5 -170.5q0 -93 -36.5 -178t-98 -146.5t-146.5 -98t-178 -36.5z" />
    <glyph glyph-name="qunzupx" unicode="&#xe64c;" 
d="M638 396q38 27 60 68.5t22 89.5q0 79 -55.5 135t-134.5 56t-134.5 -56t-55.5 -135q0 -47 21 -87.5t57 -67.5q-89 -28 -146.5 -92.5t-57.5 -144.5v-56h68v43q0 53 37.5 99.5t95.5 73t119 26.5q92 0 163.5 -59t71.5 -140q0 -16 -1 -44h68q-1 36 -1 57q0 78 -55.5 141.5
t-141.5 92.5zM531 417q-54 0 -92.5 38.5t-38.5 92.5t38.5 92.5t92.5 38.5t92 -38.5t38 -92.5t-38 -92.5t-92 -38.5zM1023 45v46q0 62 -45 113.5t-114 75.5q30 21 48 54.5t18 71.5q0 64 -45 109t-108 45q-32 0 -60 -12q18 -19 34 -44q13 3 26 3q44 0 74.5 -30.5t30.5 -74.5
q0 -34 -18.5 -60.5t-48.5 -38.5q1 -21 1 -43v-23q64 -11 108.5 -55.5t44.5 -101.5q0 -12 -1 -35h55v0zM220 237v23q0 22 1 43q-30 12 -48.5 38.5t-18.5 60.5q0 43 30.5 74t74.5 31q13 0 26 -3q16 25 34 44q-28 12 -60 12q-63 0 -108 -45t-45 -109q0 -38 18 -71.5t48 -54.5
q-69 -24 -114 -75.5t-45 -113.5v-11.5v-12.5v-11v-8v-3h55q-1 23 -1 35q0 57 44.5 101.5t108.5 55.5v0z" />
    <glyph glyph-name="shibai" unicode="&#xe6fa;" 
d="M512 880q-135 0 -249 -66.5t-180.5 -180.5t-66.5 -249t66.5 -249t180.5 -180.5t249 -66.5t249 66.5t180.5 180.5t66.5 249t-66.5 249t-180.5 180.5t-249 66.5zM512 -80q-94 0 -180 37t-148 99t-99 148t-37 180t37 180t99 148t148 99t180 37t180 -37t148 -99t99 -148
t37 -180t-37 -180t-99 -148t-148 -99t-180 -37zM539 287l23 399h-100l24 -399h53zM540.5 185.5q-28.5 18.5 -58.5 0t-26.5 -50t32 -46.5t55 2t26.5 46.5t-28.5 48z" />
    <glyph glyph-name="xinfeng" unicode="&#xe612;" horiz-adv-x="1035" 
d="M138 515l327 -249q21 -16 49 -16v0q27 0 48 16l323 247l18 14v32q0 52 -36.5 88.5t-88.5 36.5h-534q-52 0 -88.5 -36.5t-36.5 -88.5v-29zM538 292q-11 -8 -24.5 -8t-24.5 8l-334 254h-1v13q0 36 26 62.5t63 26.5h535q37 0 63 -26.5t26 -62.5v-16zM119 446v-229
q0 -52 36.5 -88.5t88.5 -36.5h535q52 0 88.5 36.5t36.5 88.5v230h-36v-230q0 -37 -26 -63.5t-63 -26.5h-534q-37 0 -63 26.5t-26 63.5v229h-37zM119 482zM119 482z" />
    <glyph glyph-name="haoyoutiezi" unicode="&#xe631;" 
d="M717 111h68v95q34 31 34 76t-34 75v81q46 -20 74 -62.5t28 -93.5q0 -76 -57 -127q72 -33 116 -100t44 -149h-68q0 85 -60 145t-145 60zM817 -94h-70q-12 73 -68.5 122t-132 49t-132.5 -49t-69 -122h-69q8 69 48.5 125t101.5 86q-39 28 -62 71.5t-23 93.5q0 84 60 144
t145 60t145 -60t60 -144q0 -50 -22.5 -93.5t-61.5 -71.5q9 -5 11 -6h39q-13 0 -33 -3q54 -32 89.5 -85t43.5 -117zM683 281.5q0 56.5 -40 96.5t-96.5 40t-96.5 -40t-40 -96.5t40 -96.5t96.5 -40t96.5 40t40 96.5zM819 521q-14 0 -24 10t-10 24v68v0v205h-683v-888h69v0
q14 0 24 -10t10 -24t-10 -24t-24 -10v0h-69q-28 0 -48 20t-20 48v888q0 28 20 48t48 20h683q28 0 48 -20t20 -48v-273v0q0 -14 -10 -24t-24 -10zM273 282h-34q-14 0 -24 10t-10 24t10 24t24 10h34q14 0 24 -10t10 -24t-10 -24t-24 -10zM205 691q0 14 10 24t24 10h410
q14 0 24 -10t10 -24t-10 -24t-24 -10h-410q-14 0 -24 10t-10 24zM375 486h-136q-14 0 -24 10t-10 24.5t10 24.5t24 10h136q15 0 25 -10t10 -24.5t-10 -24.5t-25 -10z" />
    <glyph glyph-name="pintuan1" unicode="&#xe61d;" 
d="M320 -76h-122q-39 0 -66.5 27.5t-27.5 66.5v732q0 39 27.5 66.5t66.5 27.5h557q10 0 18 7.5t8 18.5t-8 18.5t-18 7.5h-557q-60 0 -103 -43t-43 -103v-732q0 -60 43 -103t103 -43h630q60 0 103 43t43 103v684q0 11 -8 18.5t-18.5 7.5t-18 -7.5t-7.5 -18.5v-684
q0 -39 -27.5 -66.5t-66.5 -27.5h-456h-52zM802 534h-535q-11 0 -18.5 7.5t-7.5 18.5t7.5 18.5t18.5 7.5h535q11 0 18.5 -7.5t7.5 -18.5t-7.5 -18.5t-18.5 -7.5zM595 -5q-47 0 -95 29q-10 6 -12.5 16t3.5 19.5t16 12t19 -3.5q66 -40 116 -9v685q0 10 7.5 17.5t18.5 7.5
t18.5 -7.5t7.5 -17.5v-698q0 -11 -8 -18q-5 -5 -12.5 -10.5t-30.5 -14t-48 -8.5zM267 57q-14 0 -22 12q-5 9 -2.5 19.5t11.5 15.5q59 36 121.5 99t106 119.5t86 121.5t56.5 89t21 39q5 9 15.5 12.5t19.5 -1.5t12.5 -15.5t-1.5 -19.5q-9 -17 -24.5 -44t-59 -93.5t-89 -124.5
t-110.5 -122.5t-128 -102.5q-6 -4 -13 -4v0z" />
    <glyph glyph-name="qq" unicode="&#xe632;" 
d="M782 522q0 110 -79 191q-79 80 -186 80q-110 0 -187 -76t-77 -183v-6v-6h-40v4v1l-1 7q0 124 89.5 211.5t215.5 87.5q124 0 214 -92q43 -44 67 -101t24 -118h-40zM234 502q-1 0 -3 -1t-4.5 -7t-1.5 -17l2 -11l-10 -7q-12 -12 4 -35l11 -15l-15 -12v0q-3 -3 -7.5 -6.5
t-16 -16t-21 -25.5t-20 -33t-16 -40t-5.5 -46t8 -52q33 20 39 46l19 76l20 -76v0q24 -88 47 -103l30 -20l-33 -15h-1q-51 -7 -46 -12l20 -11l-14 -19q-18 -24 4 -43q20 -17 75 -23q43 -6 74.5 -2.5t49.5 7.5t30 12t14.5 11t4.5 5l5 10h72l4 -13q2 -2 3 -4t10.5 -8.5t24 -11
t45 -7.5t69.5 -2q64 2 91 22q11 8 14 18q2 8 0 16q-2 6 -3 7l-25 15l24 18q-4 -2 -52 21l-27 13l22 20q45 46 54 95l22 121l17 -122q0 -2 2 -7t11.5 -16.5t24.5 -20.5q8 14 11.5 31.5t1.5 46.5t-22 70.5t-58 87.5l-7 8l4 11q2 6 3.5 13.5t-3.5 30.5t-23 41l30 28
q47 -50 34 -115q42 -53 62 -103.5t21 -81.5t-8.5 -59t-15 -35.5t-10.5 -12.5l-9 -10l-13 6q-31 13 -51 35q-12 -27 -32 -51q52 -31 47 -59q4 -7 7 -16q5 -19 -1 -38q-7 -22 -28 -38q-37 -27 -114 -30q-137 -4 -182 46h-26q-12 -13 -31 -23.5t-65.5 -18t-106.5 -1.5
q-42 5 -70 15.5t-40 23t-15 27.5t0 26.5t9 22.5q-13 24 42 57q-14 22 -29 61q-10 -12 -25 -22t-22 -13.5t-9 -3.5l-18 -8l-8 18q-17 39 -19 78t6.5 68t25 57t29.5 43t27 29q-18 37 6 66q0 16 5 27.5t11 17.5t14 9t11.5 3.5t5.5 0.5z" />
    <glyph glyph-name="ward" unicode="&#xe635;" 
d="M704 289v-385l-192 63l-192 -63v385q-59 44 -93.5 111t-34.5 144q0 87 43 160.5t116.5 116.5t160.5 43t160.5 -43t116.5 -116.5t43 -160.5q0 -77 -34.5 -144t-93.5 -111zM672 -52v319h-0.5h-0.5q-28 -16 -63 -27v-271zM448 -21l64 21l64 -21v252q-1 0 -4 -0.5t-5 -1
t-4 -0.5q-9 -2 -13 -2q-16 -2 -32 -2q-1 0 -3 -0.5t-3 -0.5t-3 0.5t-3 0.5q-16 0 -32 2q-4 0 -13 2q-2 0 -4 0.5t-5 1t-4 0.5v-252zM352 -52l64 21v271q-35 11 -63 27h-0.5h-0.5v-319zM512 832q-119 0 -203.5 -84.5t-84.5 -203.5q0 -79 39.5 -145.5t106.5 -104.5
q30 -17 64 -27q3 0 9 -2q11 -3 24 -5q10 -1 11 -2q12 -1 28 -1q1 0 3 -0.5t3 -0.5t3 0.5t3 0.5q16 0 28 1q1 1 11 2q13 2 24 5q6 2 9 2q34 10 64 27q67 38 106.5 104.5t39.5 145.5q0 119 -84.5 203.5t-203.5 84.5zM512 352q-80 0 -136 56.5t-56 136t56 135.5t136 56t136 -56
t56 -135.5t-56 -136t-136 -56.5zM512 704q-66 0 -113 -47t-47 -113t47 -113t113 -47t113 47t47 113t-47 113t-113 47z" />
    <glyph glyph-name="weidian" unicode="&#xe63a;" 
d="M843 314h-1q-8 0 -14.5 -6t-6.5 -15l-1 -244q0 -9 -6 -15.5t-15 -6.5h-581q-9 0 -15.5 6.5t-6.5 15.5v241q0 9 -6 15.5t-15 6.5t-15.5 -6.5t-6.5 -15.5v-241q0 -27 19 -46t46 -19h581q27 0 45.5 19t18.5 46l1 244q0 8 -6.5 14.5t-14.5 6.5zM938 479l-74 198h-712
l-72 -189q-2 -3 -3 -8q-2 -7 0 -13q4 -44 38 -73.5t81 -29.5q31 0 57.5 14t42.5 39q17 -25 45.5 -40t62.5 -15q33 0 61 14t45 38q17 -23 45 -37t60 -14q64 0 101 46q17 -24 43.5 -38.5t58.5 -14.5q47 0 81 30.5t38 74.5q4 9 1 18zM817.5 399q-31.5 0 -54 20.5t-22.5 49.5v5
v2q0 9 -6.5 15.5t-15.5 6.5t-15 -6.5t-6 -15.5q0 -29 -24.5 -49.5t-58.5 -20.5t-58.5 20.5t-24.5 49.5q0 9 -6 15.5t-15 6.5q-5 0 -9 -2q-15 -5 -15 -21q0 -29 -24.5 -49.5t-58.5 -20.5t-58.5 20.5t-24.5 49.5q0 9 -5.5 15t-14.5 7q-4 1 -8 1q-9 0 -15.5 -6t-6.5 -15
q0 -29 -22 -49.5t-53 -20.5q-30 0 -52 19t-24 46l62 162h652l60 -161v-4q0 -29 -22.5 -49.5t-54 -20.5zM193 742h636q9 0 15 6t6 15t-6 15.5t-15 6.5h-636q-9 0 -15.5 -6.5t-6.5 -15.5t6.5 -15t15.5 -6z" />
    <glyph glyph-name="yueliang" unicode="&#xe636;" 
d="M505 -64q-115 0 -213.5 54t-160 147.5t-71.5 206.5q1 17 12.5 28.5t28.5 11.5q20 0 32 -15l1 1q80 -85 197 -85q114 0 194 80t80 193q0 118 -87 198l1 1v0q-14 12 -14 31q0 17 12 29t28 13q113 -10 206.5 -71.5t147.5 -160.5t54 -214q0 -91 -35.5 -174t-95.5 -143
t-143 -95.5t-174 -35.5v0z" />
    <glyph glyph-name="huangguan" unicode="&#xe70b;" 
d="M953 419q-7 30 -23.5 49.5t-36.5 26.5t-41.5 8.5t-38.5 -5.5q-11 50 -42 78.5t-69 32t-77 -12t-66 -48.5q-23 48 -26 110q36 -2 66 -12q6 16 6 38t-6 38q-30 -10 -66 -12q2 43 10 80q-13 7 -31.5 7t-31.5 -7q8 -37 10 -80q-36 2 -66 12q-6 -16 -6 -38t6 -38q31 10 66 12
q-3 -62 -26 -110q-27 33 -66 48.5t-76.5 12t-69 -32t-42.5 -78.5q-16 7 -38 5.5t-41.5 -8.5t-36.5 -26.5t-24 -49.5q-9 -39 3.5 -76t33.5 -62t55.5 -66t55.5 -75q28 -46 37 -128q2 -18 9.5 -26t24.5 -8h223h222q17 0 24.5 8t9.5 26q9 82 38 128q20 34 54.5 75t56 66t34 62
t2.5 76v0zM285 111q-14 42 -39.5 86.5t-46.5 72.5t-34.5 59.5t-7.5 56.5q10 48 52 49q8 -40 37 -88t61.5 -104t46.5 -111q-31 -6 -69 -21v0zM405 142q-4 31 -15 64.5t-23.5 58.5t-24.5 53t-19.5 50.5t-7 48.5t11.5 50q12 26 35 37.5t46.5 7.5t41.5 -18q-12 -37 -8.5 -84
t12 -79.5t18.5 -83.5t11 -96q-17 -1 -78 -9v0zM541 151q1 45 11 96t18.5 83.5t11.5 79.5t-9 84q19 14 42 18t46 -7.5t35 -37.5q11 -24 11.5 -50t-7 -48.5t-19.5 -50.5t-24.5 -53t-23.5 -58.5t-15 -64.5q-61 8 -77 9v0zM738 111q-38 15 -68 21q14 55 46 111t61 104t37 88
q43 -1 53 -49q5 -25 -8.5 -56.5t-34 -59.5t-46.5 -72.5t-40 -86.5v0zM738 111z" />
    <glyph glyph-name="dibudaohangpinhaohuo" unicode="&#xe641;" 
d="M677.5 630q-23.5 0 -40.5 -17t-17 -40q0 -18 10 -32t26 -21v-2q0 -52 -39 -89.5t-93.5 -37.5t-93.5 37t-39 90v2q16 7 26 21t10 32q0 23 -17 40t-40.5 17t-40 -17t-16.5 -40q0 -19 11.5 -34t28.5 -20v-1q0 -66 50 -113t120.5 -47t120.5 47t50 113v1q17 5 28.5 20t11.5 34
q0 23 -16.5 40t-40 17zM901 97l-60 604q-14 27 -39 44t-52 17h-453q-28 0 -52.5 -17t-38.5 -44l-60 -604q-2 -35 24 -63t67 -28h574q40 0 66 27.5t24 63.5zM780 36h-513q-44 0 -68.5 17t-22.5 44l61 574q9 28 32.5 44.5t57.5 16.5h393q34 0 58 -16.5t33 -44.5l60 -574
q2 -27 -22.5 -44t-68.5 -17z" />
    <glyph glyph-name="weixinzhifu-copy" unicode="&#xe637;" 
d="M512.5 781q-134.5 0 -249 -53.5t-181 -146t-66.5 -200.5q0 -91 47.5 -172t134.5 -138q-1 -12 -13 -52q-9 -32 -12.5 -46.5t-0.5 -30.5t16 -22q5 -3 12 -3v0q14 0 32 11t53 38q47 35 58 39q81 -24 169 -24q135 0 249.5 53.5t181 145.5t66.5 200.5t-66.5 201t-181 146
t-249 53.5zM512 24q-83 0 -160 23q-4 1 -9 1q-14 0 -31.5 -10.5t-52.5 -37.5q-29 -21 -42 -30q3 12 10 37q9 31 12 45t1.5 29t-12.5 22q-81 51 -125 124t-44 154q0 96 61 178.5t165 130t227 47.5q124 0 228 -48t164 -130q-455 -215 -486 -212q-15 2 -44.5 22t-51.5 39
l-23 19q-1 1 -3 1.5t-7.5 2t-9.5 0.5t-7.5 -5t-3.5 -13q91 -212 106 -214q2 0 8 -1.5t9 -1t11 3t21 10t32 19.5q61 40 480 281q30 -63 30 -129q0 -97 -60.5 -179t-165 -130t-227.5 -48v0z" />
    <glyph glyph-name="jiesuan1" unicode="&#xe9a8;" 
d="M861 819h-108v50q0 11 -7.5 18.5t-18 7.5t-18 -7.5t-7.5 -18.5v-50h-380v50q0 11 -7.5 18.5t-18 7.5t-18 -7.5t-7.5 -18.5v-50h-108q-38 0 -66.5 -29t-28.5 -67v-754q0 -38 28.5 -66.5t66.5 -28.5h691q42 0 69.5 27.5t32.5 67.5v754q0 38 -28.5 67t-66.5 29v0zM903 -43
q0 -15 -8.5 -23.5t-22.5 -8.5h-721q-15 0 -23.5 8.5t-8.5 23.5v778q0 15 8.5 23.5t23.5 8.5h120v-77q0 -10 7.5 -17.5t18 -7.5t18 7.5t7.5 17.5v77h380v-77q0 -10 7.5 -17.5t18 -7.5t18 7.5t7.5 17.5v77h119q14 0 22.5 -8.5t8.5 -23.5v-778v0v0zM666 315q8 0 14 5.5t6 13.5
t-6 13.5t-14 5.5h-135v12l149 149q6 6 6 14t-5.5 14t-14 6t-14.5 -6l-140 -142l-140 142q-6 6 -14.5 6t-14 -5.5t-5.5 -14t6 -14.5l149 -149v-12h-135q-8 0 -14 -5.5t-6 -13.5t6 -13.5t14 -5.5h135v-78h-135q-8 0 -14 -6t-6 -14t6 -13.5t14 -5.5h135v-96q0 -9 5.5 -14.5
t13.5 -5.5t13.5 5.5t5.5 14.5v96h135q8 0 14 5.5t6 14t-6 14t-14 5.5h-135v78h135v0z" />
    <glyph glyph-name="chongzhi" unicode="&#xe6c7;" 
d="M512 896q-138 0 -256 -69t-187 -187t-69 -256t69 -256t187 -187t256 -69t256 69t187 187t69 256t-69 256t-187 187t-256 69v0zM512 -83q-94 0 -179.5 37t-147 100t-98 149.5t-36.5 180.5t36.5 180.5t98 149.5t147 100t179.5 37t180.5 -37t149.5 -100t100 -149.5
t37 -180.5q0 -95 -36.5 -181t-98.5 -149t-149 -100t-183 -37v0zM512 -83zM474 634l38 25l38 -57l-19 -13v-7h256v-38h-537v32l262 6zM474 634zM454 550l-172 -166l25 -32q12 1 33 2.5t76.5 5.5t102 6t93.5 2t66 -3h13l26 -39l38 26l-128 154l-32 -20l51 -76q-153 0 -288 -13
l154 147l-58 6v0zM454 550zM416 378v-77q-1 -5 -3.5 -13.5t-15.5 -31t-30.5 -41.5t-52 -39t-77.5 -29l19 -32q7 2 19 6.5t42.5 19.5t55 32.5t47.5 46.5t28 62l6 96h-38v0zM416 378zM570 378v-199v-6.5t3.5 -15.5t9.5 -19.5t19.5 -15.5t31.5 -7h89q3 0 8.5 1t18.5 7.5t23 18
t18.5 36.5t8.5 59l-51 19q1 -4 2 -10t2 -22t-2.5 -29t-15 -25.5t-31.5 -15.5h-64q-2 0 -4.5 0.5t-8.5 5.5t-10.5 11.5t-7.5 20.5t-1 32v147h-38v7zM570 378z" />
    <glyph glyph-name="mfenxiaodingdan2" unicode="&#xe6cb;" 
d="M791 768h-558q-27 0 -45.5 -18.5t-18.5 -45.5v-661q0 -26 18.5 -44.5t45.5 -18.5h558q27 0 45.5 18.5t18.5 44.5v661q0 27 -18.5 45.5t-45.5 18.5zM814 43q0 -9 -6.5 -16t-16.5 -7h-558q-10 0 -16.5 7t-6.5 16v661q0 10 6.5 16.5t16.5 6.5h558q10 0 16.5 -6.5t6.5 -16.5
v-661zM640 174h-266q-9 0 -15 -6t-6 -14.5t6 -14.5t15 -6h266q8 0 14 6t6 14.5t-6 14.5t-14 6zM579 102h-134q-8 0 -14 -6t-6 -14.5t6 -14.5t14 -6h134q8 0 14 6t6 14.5t-6 14.5t-14 6zM693 376q-10 28 -31 48.5t-46.5 32t-44.5 17t-38 7.5v18q29 7 48.5 31t19.5 55
q0 36 -26 62t-62.5 26t-62.5 -26t-26 -62q0 -31 19.5 -55t48.5 -31v-18q-19 -3 -38 -9t-43.5 -17t-45 -31.5t-30.5 -46.5q-21 -5 -34.5 -22.5t-13.5 -39.5q0 -26 18.5 -44.5t45 -18.5t45 18.5t18.5 44.5q0 19 -9.5 34.5t-26.5 23.5q28 50 114 66l1 -64q-19 -6 -31 -22.5
t-12 -37.5q0 -26 18.5 -44.5t45 -18.5t45 18.5t18.5 44.5q0 21 -12 37.5t-31 22.5l-1 65q88 -16 117 -67q-17 -7 -27.5 -23t-10.5 -35q0 -26 18.5 -44.5t45 -18.5t45 18.5t18.5 44.5q0 22 -13 39t-33 22zM350.5 293q-9.5 0 -16 6.5t-6.5 16t6.5 16t16 6.5t16 -6.5t6.5 -16
t-6.5 -16t-16 -6.5zM465 584.5q0 19.5 14 33.5t33.5 14t33.5 -14t14 -33.5t-14 -33.5t-33.5 -14t-33.5 14t-14 33.5zM513.5 293q-9.5 0 -16 6.5t-6.5 16t6.5 16t16 6.5t16 -6.5t6.5 -16t-6.5 -16t-16 -6.5zM675.5 293q-9.5 0 -16 6.5t-6.5 16t6.5 16t16 6.5t16 -6.5t6.5 -16
t-6.5 -16t-16 -6.5z" />
    <glyph glyph-name="woguanzhudequanzi" unicode="&#xe671;" 
d="M775 259q0 -10 -6 -15.5t-15 -5.5q-4 0 -9 2v0q-85 66 -189.5 80t-202.5 -26t-164 -125q-68 -87 -81 -201h-2q0 -9 -6 -15t-15 -6t-15 6t-6 15q0 7 4 11q16 129 99.5 228.5t207.5 136.5q-67 30 -110.5 89.5t-51 128t19.5 140.5q22 51 61.5 88.5t87.5 56.5t103 19t106 -22
t88.5 -61.5t56.5 -87.5t18.5 -103t-21.5 -105q-39 -92 -128 -134q89 -23 157 -73q2 -1 5 -3.5t6 -3.5l2 -1t2 -3l-2 -2v-8v0v0zM712 593q0 96 -67 163t-163 67t-163 -67t-67 -162.5t67 -163t163 -67.5t163 67.5t67 162.5v0v0zM772 -99l-157 155q-31 32 -31 76q0 45 32 77
t77 32q47 0 79 -34q33 34 80 34q45 0 77 -32t32 -77q0 -47 -33 -79zM693 208q-31 0 -53.5 -22.5t-22.5 -53.5t21 -53l134 -135l132 133q24 22 24 55q0 31 -22.5 53.5t-53.5 22.5q-24 0 -43 -12t-28 -33l-9 -13l-8 13q-9 21 -28 33t-43 12z" />
    <glyph glyph-name="huzhuwenda" unicode="&#xe66f;" horiz-adv-x="1027" 
d="M427 541h-108q-1 86 56.5 138t144.5 52q79 0 133.5 -48t54.5 -127q0 -46 -20 -79t-60 -70q-42 -41 -53.5 -67t-14.5 -83h-112v20q0 112 86 192q2 1 13.5 11.5t15 14t12 13t11.5 16t6 16t3 19.5q0 31 -24 48t-57 17q-38 0 -62.5 -23t-24.5 -60v0zM504 191q31 0 52 -21
t21 -52q0 -30 -21 -52t-51 -22t-50.5 22t-20.5 52.5t21 51.5q20 21 49 21zM966 -64q11 0 19 -8t8 -19.5t-8 -19.5t-19 -8l-624 1q-160 1 -237 112q-51 75 -71 224q-1 11 5.5 20t18 10.5t20 -5.5t10.5 -18q18 -136 62 -200q61 -88 192 -88l514 -1l-41 119q-4 11 1 21
t15.5 13.5t20.5 -1.5t14 -16l47 -136h53v0zM171 839l41 -119q4 -10 -1 -20.5t-16 -14t-21 1.5t-13 16l-48 137h-52q-11 0 -19 8t-8 19t8 19t19 8l623 -1q160 0 237 -112q51 -75 72 -223q1 -11 -6 -20t-18 -10.5t-20 5.5t-10 18q-19 136 -63 199q-60 88 -192 89h-513z" />
    <glyph glyph-name="nv" unicode="&#xe638;" 
d="M608 767q119 0 203 -84t84 -203t-84 -203t-203 -84t-203 84t-84 203t84 203t203 84zM97 -63h255q14 0 23 9.5t9 22.5t-9 22.5t-23 9.5h-180l210 210q98 -82 226 -82q95 0 176 47t128 127.5t47 176t-47 176.5t-128 128t-176.5 47t-176 -47t-127.5 -128t-47 -176
q0 -127 80 -224l-208 -208v176q0 14 -9.5 23t-22.5 9t-22.5 -9t-9.5 -23v-255q0 -13 9.5 -22.5t22.5 -9.5z" />
    <glyph glyph-name="quanbu" unicode="&#xe639;" 
d="M870 -60h-273q-28 0 -48 20t-20 49v273q0 28 20 48t48 20h273q29 0 49 -20t20 -48v-273q0 -29 -20 -49t-49 -20zM905 282q0 14 -10 24t-25 10h-273q-14 0 -24 -10t-10 -24v-273q0 -15 10 -25t24 -10h273q15 0 25 10t10 25v273zM870 401h-273q-28 0 -48 20t-20 48v273
q0 29 20 49t48 20h273q29 0 49 -20t20 -49v-273q0 -28 -20 -48t-49 -20zM905 742q0 15 -10 25t-25 10h-273q-14 0 -24 -10t-10 -25v-273q0 -14 10 -24t24 -10h273q15 0 25 10t10 24v273zM410 -60h-273q-29 0 -49 20t-20 49v273q0 28 20 48t49 20h273q28 0 48 -20t20 -48
v-273q0 -29 -20 -49t-48 -20zM444 282q0 14 -10 24t-24 10h-273q-15 0 -25 -10t-10 -24v-273q0 -15 10 -25t25 -10h273q14 0 24 10t10 25v273zM410 401h-273q-29 0 -49 20t-20 48v273q0 29 20 49t49 20h273q28 0 48 -20t20 -49v-273q0 -28 -20 -48t-48 -20zM444 742
q0 15 -10 25t-24 10h-273q-15 0 -25 -10t-10 -25v-273q0 -14 10 -24t25 -10h273q14 0 24 10t10 24v273z" />
    <glyph glyph-name="bianji1" unicode="&#xe660;" 
d="M880 40h-743q-8 0 -14 -6t-6 -14t6 -14t14 -6h743q8 0 14 6t6 14t-6 14t-14 6zM167 98q2 0 5 1l123 35q5 1 9 5l387 387q5 6 5 14t-5.5 14t-14 6t-14.5 -6l-334 -335l-65 65q-3 4 -8 5l327 328q6 5 6 13.5t-6 14.5t-14 6t-14 -6l-384 -384q-5 -5 -6 -12l-17 -128
q-2 -11 6 -18q6 -5 14 -5zM203 237l27 27q1 -5 4 -8l65 -65l-20 -20l-88 -26zM701 567q6 -6 13 -6q9 0 15 7l71 76q5 6 5 14.5t-6 13.5l-97 90q-7 6 -15 5.5t-14 -6.5l-70 -77q-6 -6 -5.5 -14t6.5 -14zM689 719l68 -62l-44 -47l-67 62z" />
    <glyph glyph-name="block" unicode="&#xe63c;" 
d="M923 734h-821q-41 0 -69.5 -29t-28.5 -70v-498q0 -41 28.5 -69.5t69.5 -28.5h821q40 0 69 28.5t29 69.5v498q0 41 -29 70t-69 29zM102 693h821q23 0 40 -17t17 -41v-57h-935v57q0 24 16.5 41t40.5 17zM923 80h-821q-24 0 -40.5 16.5t-16.5 40.5v315h935v-315
q0 -24 -17 -40.5t-40 -16.5z" />
    <glyph glyph-name="weizhi" unicode="&#xe6cc;" 
d="M501 412q61 0 104 43.5t43 104.5t-43 104t-104 43t-104.5 -43t-43.5 -104t43.5 -104.5t104.5 -43.5zM500.5 652q37.5 0 64.5 -26.5t27 -64.5t-26.5 -64.5t-64.5 -26.5t-65 26.5t-27 64.5t27 64.5t64.5 26.5zM273 414l1 -2q45 -66 195 -281l1 -1q13 -16 32 -16q21 0 31 16
v0q193 279 200 288l1 1l1 1q39 66 39 141q0 113 -79.5 192.5t-192.5 79.5t-192.5 -79.5t-79.5 -192.5q0 -80 43 -147zM501 777q89 0 152.5 -63t63.5 -153q0 -58 -31 -112v-1q-5 -7 -90 -130q-62 -88 -88 -126l-6 -9l-6 9q-19 26 -69 98q-101 146 -109 155v1q-35 53 -35 114
q1 90 65 153.5t153 63.5zM924 -63l-165 340h-73l-29 -61h63l110 -227h-639l93 228h68l-31 61h-76l-147 -341h826z" />
    <glyph glyph-name="pintuan" unicode="&#xe64d;" horiz-adv-x="1025" 
d="M512 -128q-104 0 -197.5 39.5t-164.5 110.5t-110.5 164.5t-39.5 197.5t39.5 197.5t110.5 164.5t164.5 110.5t197.5 39.5t197.5 -39.5t164.5 -110.5t110.5 -164.5t39.5 -197.5t-39.5 -197.5t-110.5 -164.5t-164.5 -110.5t-197.5 -39.5zM190 62q63 -63 146 -98.5t176 -35.5
t176 35.5t146 98.5t98.5 146t35.5 176t-35.5 176t-98.5 146t-146 98.5t-176 35.5t-176 -35.5t-146 -98.5t-98.5 -146t-35.5 -176t35.5 -176t98.5 -146zM834 363h-85v185h71q38 28 0 52h-101q16 19 44 74q5 22 -14 33q-22 8 -33 -11q-33 -62 -57 -96h-90q5 11 -5 30
q-7 11 -19 33q-11 21 -20 33q-16 21 -38 8q-22 -17 -8 -38q21 -29 44 -66h-88q-41 -24 0 -52h63v-185h-73q-22 0 -22 -25q0 -27 22 -27h68q-11 -112 -82 -207q-17 -22 5 -38q25 -11 44 11q71 103 87 234h147v-229q0 -27 28 -30q27 3 27 30v229h85q41 27 0 52zM683 365h-132
v172h132v-172zM400 404q-14 19 -35 5q-17 -11 -20 -11q2 0 0 -1q-2 0 -5 -1v139h44q19 2 21 30q-2 24 -21 27h-44v106q0 22 -27 22t-27 -22v-106h-60q-20 -3 -20 -27q0 -28 20 -30h60v-169q-38 -19 -74 -30q-25 -11 -22 -36q11 -27 36 -19q44 17 60 27v-169q2 -30 -50 -19
q-24 6 -30 -19q0 -27 22 -33q115 -24 112 71v194q8 2 27 16q17 14 25 17q19 16 8 38z" />
    <glyph glyph-name="kulian" unicode="&#xe8d6;" 
d="M514 844q97 0 206 -55t166 -133q90 -120 90 -274q0 -94 -36.5 -179.5t-98.5 -147.5t-147.5 -98.5t-179 -36.5t-179 36.5t-147.5 98.5t-98.5 147.5t-36.5 179.5t36.5 179.5t98.5 147t147.5 98.5t178.5 37zM511 895q-103 0 -197.5 -40.5t-163 -109t-109 -162.5
t-40.5 -197.5t40.5 -198.5t109 -164t163 -110t198 -41t197.5 40.5t162.5 109t109 163t40.5 197.5q0 173 -100 303q-68 98 -176.5 154t-233.5 56zM302 530q0 -24 17 -41t41 -17t41 17t17 41t-17 41t-41 17t-41.5 -17t-17.5 -41h1zM605 530q0 -24 17 -41t41 -17t41 17t17 41
t-17 41t-41 17t-41 -17t-17 -41v0zM296 134q64 158 231 158q162 0 233 -158q5 -11 -11 -15q-18 -5 -23 8q-25 58 -80 95.5t-117.5 37.5t-117.5 -37.5t-79 -95.5q-6 -9 -25 -6q-15 3 -11 13v0z" />
    <glyph glyph-name="jiangbei" unicode="&#xe63d;" 
d="M966 690h-167v6l-1 2q-2 29 -14 53t-19.5 31.5t-13.5 11.5l-7 5h-434l-5 -2q-29 -12 -47.5 -39t-21.5 -48l-4 -21q0 -1 -171 -1q-1 -3 -1.5 -35t0.5 -62v-31q0 -27 14.5 -59.5t31.5 -47.5q25 -21 67 -35.5t72 -14.5q26 -61 68 -112q76 -95 171 -106v-175h-114v-56h284v56
h-115v176q46 8 91 39q45 32 88 87q34 43 62 94q36 3 78 17t63 32q17 15 31.5 47t14.5 60q2 121 -1 128zM144 493q-21 17 -25.5 66t-1.5 71h114q0 -30 -1 -56q0 -78 3 -117q-56 8 -89 36zM745 453q-29 -58 -68 -108q-86 -108 -168 -109h-1q-83 0 -154 88q-27 33 -44 66.5
t-21 48.5q-10 32 -4 249q5 42 36 58h404q17 -20 20 -52v-241zM884 494q-26 -21 -85 -32v169h111q3 -21 -1.5 -70.5t-24.5 -66.5z" />
    <glyph glyph-name="sousuo_sousuo" unicode="&#xe63f;" 
d="M1010 -40v0v0v0q14 -16 14 -35q0 -22 -15 -38q-15 -15 -37 -15h-1q-9 0 -17.5 3t-15.5 8l-6 5l-282 285q-102 -72 -228 -72q-12 0 -25 1t-26 3q-37 4 -84.5 21.5t-78.5 38.5q-80 51 -128 136q-23 39 -36 83t-16 90v24q0 34 5 68q5 30 20 70.5t31 67t44.5 58.5t53.5 51
q50 40 113 61q62 22 127 22q28 0 53 -3q67 -10 129 -42q26 -13 57.5 -37t50.5 -45q53 -56 81.5 -132.5t24.5 -155.5q-4 -131 -90 -236l283 -285h-1zM759 482v17q0 26 -7 61.5t-16 58.5q-15 41 -40 76t-59 63t-73 47q-27 12 -68 21t-72 9q-19 0 -38 -2q-5 0 -11 -1l-6 -1
q-31 -5 -70.5 -21t-65.5 -33q-26 -18 -54.5 -49t-44.5 -58q-42 -70 -46 -155.5t31 -159.5q13 -27 38 -60.5t49 -53.5q23 -20 60 -39.5t66 -27.5q73 -21 148 -8q39 7 75 22.5t68 39.5t57 54q26 30 43 65v0q14 27 24 66.5t12 68.5z" />
    <glyph glyph-name="wenda_shizhong" unicode="&#xe642;" 
d="M544 608h-64v-256h192v64h-128v192zM512 768q-159 0 -271.5 -112.5t-112.5 -271.5t112.5 -271.5t271.5 -112.5t271.5 112.5t112.5 271.5t-112.5 271.5t-271.5 112.5zM512 64q-133 0 -226.5 93.5t-93.5 226.5t93.5 226.5t226.5 93.5t226.5 -93.5t93.5 -226.5t-93.5 -226.5
t-226.5 -93.5z" />
    <glyph glyph-name="sort-ascend" unicode="&#xe6f0;" horiz-adv-x="1025" 
d="M475 633h-270q-15 0 -25.5 -10.5t-10.5 -25.5t10.5 -25.5t25.5 -10.5h270q15 0 25.5 10.5t10.5 25.5t-10.5 25.5t-25.5 10.5zM475 418h-270q-15 0 -25.5 -10.5t-10.5 -25.5t10.5 -25.5t25.5 -10.5h270q15 0 25.5 10.5t10.5 25.5t-10.5 25.5t-25.5 10.5zM475 203h-270
q-15 0 -25.5 -10.5t-10.5 -25.5t10.5 -25.5t25.5 -10.5h270q15 0 25.5 10.5t10.5 25.5t-10.5 25.5t-25.5 10.5zM853 475l-148 215q-10 18 -21 18q-4 1 -9.5 -3.5t-8.5 -9.5l-4 -5q-98 -144 -147 -215q-3 -4 -2 -9t6 -5h129v-366q0 -14 10.5 -24.5t25.5 -10.5t25.5 10.5
t10.5 24.5v366h129q5 0 6 5t-2 9z" />
    <glyph glyph-name="quan" unicode="&#xe66b;" 
d="M849 35h-674q-41 0 -69.5 28.5t-28.5 69.5v166l20 -1h2h1q36 0 61 25t25 61t-25 61t-61 25h-1h-2l-20 -1v166q0 41 28.5 69.5t69.5 28.5h674q41 0 69.5 -28.5t28.5 -69.5v-165h-20q-35 0 -60.5 -25t-25.5 -61t25.5 -61t60.5 -25h20v-165q0 -41 -28.5 -69.5t-69.5 -28.5z
M116 259v-126q0 -25 17.5 -42t41.5 -17h674q24 0 41.5 17t17.5 42v127q-45 7 -75.5 42t-30.5 82t30.5 82t75.5 42v127q0 25 -17.5 42t-41.5 17h-674q-24 0 -41.5 -17t-17.5 -42v-126q47 -6 78.5 -41.5t31.5 -83.5t-31.5 -83.5t-78.5 -41.5zM428 574l84 -163l84 163h70
l-104 -187h71v-33h-90v0v-46h90v-33h-90v-81h-62v81h-89v33h89v46v0h-89v33h70l-104 187h70z" />
    <glyph glyph-name="leibie" unicode="&#xe643;" 
d="M812 4h-179q-34 0 -58 24t-24 58v179q0 34 24 58t58 24h179q34 0 58 -24t24 -58v-179q0 -34 -24 -58t-58 -24zM849 266q0 15 -10.5 25.5t-25.5 10.5h-181v0q-15 0 -25.5 -10.5t-10.5 -25.5v-181q0 -15 10.5 -25.5t25.5 -10.5h181v0q15 0 25.5 10.5t10.5 25.5v181z
M812 420h-179q-34 0 -58 24t-24 58v179q0 34 24 58t58 24h179q34 0 58 -24t24 -58v-179q0 -34 -24 -58t-58 -24zM849 682q0 15 -10.5 25.5t-25.5 10.5h-181v0q-15 0 -25.5 -10.5t-10.5 -25.5v-181q0 -15 10.5 -25.5t25.5 -10.5h181v0q15 0 25.5 10.5t10.5 25.5v181zM390 4
h-179v0q-34 0 -58 24t-24 58v179q0 34 24 58t58 24h179v0q34 0 58 -24t24 -58v-179q0 -34 -24 -58t-58 -24zM427 266q0 15 -10.5 25.5t-25.5 10.5h-181q-15 0 -25.5 -10.5t-10.5 -25.5v-181q0 -15 10.5 -25.5t25.5 -10.5h181v0q15 0 25.5 10.5t10.5 25.5v181zM390 420h-179
v0q-34 0 -58 24t-24 58v179q0 34 24 58t58 24h179v0q34 0 58 -24t24 -58v-179q0 -34 -24 -58t-58 -24zM427 682q0 15 -10.5 25.5t-25.5 10.5h-181q-15 0 -25.5 -10.5t-10.5 -25.5v-181q0 -15 10.5 -25.5t25.5 -10.5h181v0q15 0 25.5 10.5t10.5 25.5v181z" />
    <glyph glyph-name="jiangxu" unicode="&#xe645;" 
d="M461 727h-373q-21 0 -35.5 -14.5t-14.5 -35t14.5 -35t35.5 -14.5h373q21 0 35.5 14.5t14.5 35t-14.5 35t-35.5 14.5zM461 430h-373q-21 0 -35.5 -14.5t-14.5 -35t14.5 -34.5t35.5 -14h373q21 0 35.5 14.5t14.5 34.5t-14.5 34.5t-35.5 14.5zM461 134h-373
q-21 0 -35.5 -14.5t-14.5 -35t14.5 -35t35.5 -14.5h373q21 0 35.5 14.5t14.5 35t-14.5 35t-35.5 14.5zM977 278h-178v504q0 21 -14.5 35.5t-35 14.5t-35 -14.5t-14.5 -35.5v-504h-178q-7 0 -8.5 -7t2.5 -12l204 -297l5 -7.5t11 -12t13 -6.5q7 0 14.5 6.5t11.5 12.5l4 7
l204 297q4 4 2.5 11.5t-8.5 7.5z" />
    <glyph glyph-name="fenxiao" unicode="&#xe646;" 
d="M847 196q-35 100 -120 164.5t-190 71.5v57q58 9 97 54t39 104q0 67 -47 113.5t-113.5 46.5t-113.5 -46.5t-47 -113.5q0 -59 39 -104t97 -54v-57q-105 -7 -190 -71.5t-120 -164.5q-47 -1 -80 -35.5t-33 -81.5q0 -49 34.5 -83.5t83 -34.5t83 34.5t34.5 83.5q0 36 -20 65.5
t-53 43.5q31 82 102.5 135t158.5 60v-189q-40 -9 -66.5 -41t-26.5 -74q0 -49 34.5 -83.5t83 -34.5t83 34.5t34.5 83.5q0 42 -26.5 74t-66.5 41v189q88 -7 159 -60t102 -135q-33 -14 -53 -43.5t-20 -65.5q0 -49 34.5 -83.5t83 -34.5t83 34.5t34.5 83.5q0 47 -33 81.5
t-80 35.5zM251 79q0 -29 -20 -49t-48.5 -20t-48.5 20t-20 48.5t20 49t48 20.5q4 0 9 -1h3q25 -4 41 -23.5t16 -44.5zM401 647q0 46 33 79t79 33t78.5 -33t32.5 -79t-32.5 -78.5t-78.5 -32.5t-79 32.5t-33 78.5zM581 78.5q0 -28.5 -20 -48.5t-48.5 -20t-48.5 20t-20 48.5
t20 49t48.5 20.5t48.5 -20.5t20 -49zM842.5 10q-28.5 0 -48.5 20t-20 49q0 25 16.5 44.5t40.5 23.5h3q4 1 9 1q28 0 48 -20.5t20 -49t-20 -48.5t-48.5 -20z" />
    <glyph glyph-name="toupiao" unicode="&#xe649;" 
d="M144 808v-778q0 -9 7 -16t17 -7t17 7t7 16v778q0 10 -7 17t-17 7t-17 -7t-7 -17zM333 525v-495q0 -9 7 -16t16.5 -7t16.5 7t7 16v495q0 10 -7 17t-16.5 7t-16.5 -7t-7 -17zM521 667v-637q0 -9 7 -16t17 -7t17 7t7 16v637q0 10 -7 16.5t-17 6.5t-17 -6.5t-7 -16.5z
M710 337v-71q0 -10 7 -16.5t16.5 -6.5t16.5 6.5t7 16.5v71q0 10 -7 16.5t-16.5 6.5t-16.5 -6.5t-7 -16.5zM97 -17h542q10 0 17 7t7 17t-7 16.5t-17 6.5h-542q-10 0 -16.5 -6.5t-6.5 -16.5t6.5 -17t16.5 -7zM785 54h-57q-10 0 -16.5 7t-6.5 16.5t6.5 16.5t16.5 7h57v57
q0 10 7 17t17 7t17 -7t7 -17v-57h57q10 0 16.5 -7t6.5 -16.5t-6.5 -16.5t-16.5 -7h-57v-57q0 -10 -7 -17t-17 -7t-17 7t-7 17v57zM809 -64q59 0 100 41.5t41 100t-41 100t-100 41.5t-100 -41.5t-41 -100t41 -100t100 -41.5z" />
    <glyph glyph-name="conpon1" unicode="&#xe687;" 
d="M85 681h875v-228l-22 4h-7q-3 1 -6 1q-33 0 -56 -24q-23 -23 -23 -56t23 -56t56 -23h6h7l22 4v-228h-894v233l24 -7l10 -2h10q33 0 56.5 23t23.5 56t-23 56q-23 24 -57 24q-5 0 -10 -1l-10 -2l-24 -7v233h19v0zM348 642v-60h-28v60h-215v-145h6q49 0 84 -35t35 -84
t-35 -84t-84 -35h-6v-145h215v49h28v-49h573v145q-47 2 -80 35q-35 35 -35 84t35 84q33 33 80 35v145h-573zM348 556v-106h-28v106h28zM348 417v-110h-28v110h28zM348 275v-84h-28v84h28zM634 407h58q6 0 9 -6.5t0 -13.5t-9 -7h-78v-31h78q6 0 9 -6.5t0 -13.5t-9 -7h-78v-70
q0 -10 -7.5 -14.5t-14.5 0t-7 14.5v70h-79q-7 0 -10 7t0 13.5t10 6.5h79v31h-79q-7 0 -10 7t0 13.5t10 6.5h57l-79 87q-11 12 1 22.5t22 -1.5l91 -101l92 101q10 12 21.5 1.5t1.5 -22.5z" />
    <glyph glyph-name="wenda" unicode="&#xe6e4;" 
d="M887 515h-304q-10 0 -16.5 -6.5t-6.5 -15.5v-248q0 -10 6.5 -16.5t16.5 -6.5h48l23 -86l87 86h146q9 0 16 6.5t7 16.5v248q0 9 -7 15.5t-16 6.5zM864 279q0 -13 -18 -13h-124l-45 -44l-12 44h-41q-18 0 -18 13v179q0 13 18 13h222q18 0 18 -13v-179zM686 366.5
q0 -9.5 -6.5 -16t-16 -6.5t-16 6.5t-6.5 16t6.5 16t16 6.5t16 -6.5t6.5 -16zM758 366.5q0 -9.5 -6.5 -16t-16 -6.5t-16 6.5t-6.5 16t6.5 16t16 6.5t16 -6.5t6.5 -16zM830 366.5q0 -9.5 -6.5 -16t-16 -6.5t-16 6.5t-6.5 16t6.5 16t16 6.5t16 -6.5t6.5 -16zM590 582h-312
q-9 0 -15.5 7t-6.5 16t6.5 16t15.5 7h312q9 0 16 -7t7 -16t-7 -16t-16 -7zM278 488h135v-45h-135q-9 0 -15.5 7t-6.5 16t6.5 15.5t15.5 6.5zM754 79v-1v0v-72q0 -9 -6.5 -15.5t-15.5 -6.5h-595q-9 0 -16 6.5t-7 15.5v756q0 9 7 15.5t16 6.5h595q9 0 15.5 -6.5t6.5 -15.5
v-172v0q0 -9 -6.5 -15.5t-16 -6.5t-16 6.5t-6.5 15.5v0v130q0 8 -5.5 13.5t-13.5 5.5h-511q-8 0 -13.5 -5.5t-5.5 -13.5v-672q0 -8 5.5 -13.5t13.5 -5.5h511q8 0 13.5 5.5t5.5 13.5v30v0v1q0 9 6.5 15.5t16 6.5t16 -6.5t6.5 -15.5z" />
    <glyph glyph-name="areward" unicode="&#xe855;" 
d="M941 565q-37 85 -100 148q-64 64 -148 100q-86 37 -181.5 37t-181.5 -37q-85 -36 -148 -100q-64 -64 -100 -148q-36 -86 -36 -181t36 -181q37 -85 100 -148q64 -64 148 -100q86 -37 181.5 -37t181.5 37q85 36 148 100q64 64 100 148q36 86 36 181t-36 181zM511 -32
q-113 0 -208.5 56t-151.5 151.5t-56 208.5t56 208.5t151.5 151.5t208.5 56t208.5 -56t151.5 -151.5t56 -208.5t-56 -208.5t-151.5 -151.5t-208.5 -56zM690 579h-19q20 27 20 39q0 9 -7 15q-5 5 -11 8q-9 3 -17 -1q-9 -4 -13 -14q-11 -19 -17 -28q-2 -4 -7 -10.5t-6 -8.5h-77
v59q0 9 -6.5 15.5t-19 6.5t-18.5 -6.5t-6 -15.5v-59h-73q-9 15 -19 31q-6 9 -10.5 15t-7.5 9q-8 8 -18 8q-13 0 -21 -14q-6 -15 6 -29q7 -7 16 -19h-31q-26 0 -40 -13q-15 -13 -15 -38v-63q0 -9 6.5 -16t18.5 -7q13 0 19 7t6 16v62q0 2 1 3t2 1h368q8 0 8 -15q0 -18 -9 -45
q-9 -15 2 -28q9 -9 20 -9q21 0 29 38q6 29 6 45q0 30 -15 46q-15 15 -45 15zM386 382q5 -1 18 -1h210q24 0 36 12t12 38v26q0 24 -11 37t-37 13h-210q-7 0 -18 -1q-12 -2 -18 -9q-6 -8 -9 -18q-2 -11 -2 -21v-25q0 -15 2 -23q3 -11 10 -18q6 -8 17 -10zM404 457v3h210v-28
v-4h-209q-1 1 -1 4v25v0zM734 154l-2 1q-1 0 -11 5q-3 1 -11.5 5.5t-14.5 8.5q-19 10 -34 16q-1 0 -34 16l-57 27q-25 11 -31 11q-12 0 -17 -9l-0.5 -0.5t-0.5 -1.5q10 31 10 62q0 18 -14 23h132h4q1 -2 1 -8v-98q0 -11 6.5 -17.5t17.5 -6.5t17.5 6.5t6.5 17.5v104
q0 26 -11 39q-13 12 -40 12h-279q-26 0 -39 -13q-14 -13 -14 -38v-106q0 -11 7 -17.5t18 -6.5t17.5 6.5t6.5 17.5v101q0 6 1 7t4 1h123q-14 -5 -14 -23q-1 -50 -18 -74t-55 -39q-42 -15 -114 -25q-25 -5 -25 -25q0 -10 6.5 -17t19.5 -7q33 0 105 21q77 23 103 69q8 13 12 22
l-0.5 -1l-0.5 -1q0 -12 19 -22q54 -23 89 -41q43 -22 79 -43q10 -6 18 -6q6 0 10 2q15 6 15 22q3 12 -11 23z" />
    <glyph glyph-name="alipay" unicode="&#xe6a7;" 
d="M816 729q-62 62 -144 96.5t-173 34.5t-172.5 -34.5t-143.5 -96.5t-96.5 -143.5t-34.5 -173t34.5 -173t96.5 -143.5t143.5 -97t172.5 -35q57 0 112 15q45 11 87 32q13 6 13.5 17.5t-9 17.5t-20.5 1q-38 -19 -81 -30q-49 -13 -102 -13q-83 0 -157.5 31.5t-131 88t-88 131
t-31.5 157.5t31.5 158t88 131.5t131 88t157.5 31.5t158 -31.5t131.5 -88t88 -131.5t31.5 -158q0 -63 -19 -123q-12 -37 -30 -70q-117 76 -258 142q38 60 71 125q1 1 1 2q2 5 2 10q0 8 -6 14t-15 6h-129v38h184q8 0 14.5 6t6.5 14.5t-6.5 15t-14.5 6.5h-184v64q0 8 -6 14.5
t-15 6.5t-15 -6.5t-6 -14.5v-64h-183q-9 0 -15 -6.5t-6 -15t6 -14.5t15 -6h183v-38h-138q-9 0 -15 -6t-6 -14.5t6 -15t15 -6.5h259q-17 -42 -49 -94q-44 19 -79 31q-40 14 -76.5 16.5t-59 -4t-39 -15t-23.5 -15.5l-7 -8q-25 -27 -27 -63t15 -65.5t52.5 -48.5t78.5 -15
q21 2 42.5 8t32.5 11l12 5q41 25 100 105q150 -75 259 -148q13 -10 18.5 -13t11 -1.5t10.5 8.5q30 44 51 107q20 66 20 135q0 92 -34.5 173.5t-96.5 143.5zM528 341q-12 -16 -20.5 -27t-20.5 -24.5t-23 -22t-25 -16.5t-28 -11.5t-31.5 -3.5t-36.5 5q-34 8 -45 39
q-10 34 -5.5 56t23.5 34t42.5 16t51.5 1q39 -4 121 -41q-1 -1 -2 -2.5t-1 -2.5z" />
    <glyph glyph-name="keyboard" unicode="&#xe64a;" horiz-adv-x="1046" 
d="M855 579h-98v-98h98v98zM709 579h-97v-98h97v98zM564 579h-98v-98h98v98zM418 579h-98v-98h98v98zM273 579h-98v-98h98v98zM855 433h-98v-98h98v98zM855 238h-680v-49h680v49zM709 433h-97v-98h97v98zM564 433h-98v-98h98v98zM418 433h-98v-98h98v98zM273 433h-98v-98h98
v98zM102 748h826q40 0 68.5 -28.5t28.5 -68.5v-534q0 -40 -28.5 -68.5t-68.5 -28.5h-826q-40 0 -68.5 28.5t-28.5 68.5v534q0 40 28.5 68.5t68.5 28.5zM54 117q0 -20 14.5 -34t33.5 -14h826q19 0 33.5 14t14.5 34v534q0 20 -14.5 34t-33.5 14h-826q-19 0 -33.5 -14
t-14.5 -34v-534z" />
    <glyph glyph-name="wodewenda" unicode="&#xe706;" horiz-adv-x="1025" 
d="M902 -93h-780q-51 0 -86.5 35.5t-35.5 86.5v706q0 51 35.5 86.5t86.5 35.5h292v-36h-292q-36 0 -60.5 -25t-24.5 -61v-706q0 -35 24.5 -60t60.5 -25h780q35 0 60 25t25 60v170h37v-170q0 -51 -36 -86.5t-86 -35.5zM902 -93zM333 134q-15 0 -26 11q-15 16 -9 37l59 210
q3 10 10 17l441 441q11 11 26.5 11t26.5 -11l153 -153q11 -11 11 -26.5t-11 -26.5l-441 -441q-7 -7 -17 -10l-213 -57q-5 -2 -10 -2v0zM835 824v0h-1l-441 -441h-1l-59 -211v-1v0v0h1l213 57v1l441 441h1v0v0q0 1 -1 1l-153 153v0v0zM835 824z" />
  </font>
</defs>
</svg>
